<svg xmlns="http://www.w3.org/2000/svg" width="1440" height="900" viewBox="0 0 1440 900"><rect width="100%" height="100%" fill="#DDDDDD"/><path fill="#999999" d="M374.52 374.56h22.55V495.3h-22.55v-52.77h-56.7v52.77h-22.54V374.56h22.54v51.94h56.7v-51.94Zm62.46 68.05h38.91q0-4.01-1.13-7.56-1.13-3.54-3.38-6.22-2.25-2.67-5.72-4.21-3.46-1.55-8.06-1.55-8.93 0-14.07 5.1-5.13 5.09-6.55 14.44Zm52.6 12.44h-53.02q.5 6.6 2.34 11.4 1.84 4.8 4.84 7.93 3.01 3.13 7.14 4.68 4.13 1.54 9.14 1.54 5.01 0 8.65-1.17 3.63-1.16 6.34-2.58 2.72-1.42 4.76-2.59 2.05-1.17 3.97-1.17 2.59 0 3.84 1.92l5.93 7.51q-3.43 4.01-7.68 6.73-4.26 2.71-8.9 4.34-4.63 1.63-9.43 2.29-4.8.67-9.31.67-8.94 0-16.62-2.96-7.68-2.97-13.36-8.77-5.68-5.8-8.93-14.36-3.26-8.56-3.26-19.83 0-8.77 2.84-16.49 2.84-7.73 8.14-13.45 5.3-5.72 12.94-9.06 7.64-3.34 17.25-3.34 8.09 0 14.94 2.59t11.78 7.56q4.92 4.97 7.72 12.19t2.8 16.49q0 4.68-1.01 6.3-1 1.63-3.84 1.63Zm38.5-40.24 1.25 9.68q4.01-7.68 9.52-12.06 5.51-4.39 13.02-4.39 5.93 0 9.52 2.59l-1.33 15.45q-.42 1.5-1.21 2.13-.8.62-2.13.62-1.26 0-3.72-.41-2.46-.42-4.8-.42-3.42 0-6.1 1-2.67 1-4.8 2.88t-3.75 4.55q-1.63 2.67-3.05 6.1v52.77h-20.63v-85.67h12.11q3.17 0 4.43 1.13 1.25 1.12 1.67 4.05Zm81.99-6.52q9.52 0 17.33 3.09 7.81 3.09 13.36 8.77t8.56 13.86q3 8.18 3 18.29 0 10.18-3 18.37-3.01 8.18-8.56 13.94-5.55 5.76-13.36 8.85t-17.33 3.09q-9.6 0-17.45-3.09t-13.4-8.85q-5.55-5.76-8.6-13.94-3.05-8.19-3.05-18.37 0-10.11 3.05-18.29t8.6-13.86q5.55-5.68 13.4-8.77 7.85-3.09 17.45-3.09Zm0 72.4q10.69 0 15.83-7.18 5.13-7.18 5.13-21.05 0-13.86-5.13-21.12-5.14-7.27-15.83-7.27-10.85 0-16.07 7.31-5.22 7.31-5.22 21.08 0 13.78 5.22 21 5.22 7.23 16.07 7.23Zm124.42-106.13V495.3h-22.55V374.56h22.55Zm44.34 120.74H758.2v-85.67h12.61q4.01 0 5.26 3.76l1.34 6.34q2.25-2.5 4.72-4.59 2.46-2.09 5.26-3.59 2.79-1.5 6.01-2.38 3.21-.88 7.05-.88 8.1 0 13.32 4.39 5.22 4.38 7.81 11.64 2-4.25 5.01-7.3t6.6-4.97q3.59-1.92 7.64-2.84 4.05-.92 8.14-.92 7.09 0 12.61 2.17 5.51 2.17 9.26 6.35 3.76 4.18 5.72 10.19 1.97 6.01 1.97 13.77v54.53H857.9v-54.53q0-8.18-3.59-12.31-3.59-4.14-10.52-4.14-3.17 0-5.89 1.09-2.71 1.09-4.76 3.13-2.04 2.05-3.21 5.14t-1.17 7.09v54.53h-20.71v-54.53q0-8.6-3.46-12.52-3.47-3.93-10.15-3.93-4.51 0-8.39 2.22-3.88 2.21-7.22 6.05v62.71Zm164.49-22.13v-14.44q-8.93.41-15.03 1.54-6.09 1.13-9.77 2.88-3.67 1.76-5.26 4.09-1.58 2.34-1.58 5.1 0 5.42 3.21 7.76 3.22 2.34 8.39 2.34 6.35 0 10.98-2.3 4.64-2.29 9.06-6.97Zm-43.58-45-3.68-6.6q14.78-13.53 35.57-13.53 7.52 0 13.45 2.47 5.92 2.46 10.02 6.84 4.09 4.39 6.22 10.48 2.13 6.1 2.13 13.36v54.11h-9.36q-2.92 0-4.51-.88-1.58-.87-2.5-3.55l-1.84-6.17q-3.25 2.92-6.34 5.13t-6.43 3.72q-3.34 1.5-7.14 2.29-3.8.8-8.39.8-5.43 0-10.02-1.47-4.6-1.46-7.94-4.38-3.34-2.92-5.17-7.26-1.84-4.35-1.84-10.11 0-3.25 1.09-6.47 1.08-3.21 3.54-6.14 2.47-2.92 6.39-5.51 3.93-2.59 9.65-4.51 5.72-1.92 13.31-3.13 7.6-1.21 17.37-1.46v-5.01q0-8.6-3.67-12.73-3.68-4.14-10.61-4.14-5.01 0-8.3 1.17-3.3 1.17-5.81 2.63-2.5 1.47-4.55 2.63-2.04 1.17-4.55 1.17-2.17 0-3.67-1.12-1.51-1.13-2.42-2.63Zm114.39 22.21q3.84 0 6.68-1.05 2.84-1.04 4.72-2.88 1.88-1.83 2.84-4.42t.96-5.68q0-6.35-3.8-10.06-3.8-3.72-11.4-3.72-7.6 0-11.4 3.72-3.8 3.71-3.8 10.06 0 3 .96 5.59t2.84 4.47q1.88 1.88 4.76 2.92 2.88 1.05 6.64 1.05Zm23.3 48.76q0-2.5-1.51-4.09-1.5-1.59-4.09-2.46-2.59-.88-6.05-1.3-3.47-.42-7.35-.62-3.88-.21-8.02-.38-4.13-.17-8.05-.67-3.43 1.92-5.56 4.51-2.13 2.59-2.13 6.01 0 2.26 1.13 4.22t3.59 3.38q2.47 1.42 6.39 2.21 3.92.8 9.6.8 5.76 0 9.94-.88 4.17-.88 6.89-2.42 2.71-1.55 3.96-3.67 1.26-2.13 1.26-4.64Zm-4.09-86.59h24.63v7.68q0 3.68-4.43 4.51l-7.68 1.42q1.75 4.43 1.75 9.69 0 6.34-2.54 11.48-2.55 5.13-7.06 8.72-4.51 3.6-10.65 5.56-6.13 1.96-13.23 1.96-2.5 0-4.84-.25t-4.6-.67q-4 2.42-4 5.43 0 2.59 2.38 3.8t6.3 1.71q3.93.5 8.94.63 5.01.12 10.27.54 5.26.42 10.27 1.46t8.93 3.3q3.93 2.25 6.3 6.14 2.38 3.88 2.38 9.97 0 5.68-2.79 11.03-2.8 5.34-8.1 9.52-5.3 4.17-13.03 6.72-7.72 2.54-17.57 2.54-9.69 0-16.87-1.88-7.18-1.87-11.94-5.01-4.76-3.13-7.1-7.22t-2.34-8.51q0-6.02 3.63-10.07 3.64-4.05 9.98-6.47-3.42-1.75-5.42-4.67-2.01-2.93-2.01-7.69 0-1.92.71-3.96.71-2.05 2.09-4.05 1.38-2.01 3.46-3.8 2.09-1.8 4.93-3.22-6.51-3.5-10.23-9.35-3.71-5.84-3.71-13.69 0-6.35 2.54-11.48 2.55-5.14 7.1-8.77t10.77-5.55q6.22-1.92 13.57-1.92 5.51 0 10.35 1.12 4.85 1.13 8.86 3.3Zm53.94 30.06h38.91q0-4.01-1.13-7.56-1.13-3.54-3.38-6.22-2.26-2.67-5.72-4.21-3.47-1.55-8.06-1.55-8.93 0-14.07 5.1-5.13 5.09-6.55 14.44Zm52.6 12.44h-53.02q.5 6.6 2.34 11.4 1.83 4.8 4.84 7.93t7.14 4.68q4.13 1.54 9.14 1.54 5.01 0 8.64-1.17 3.64-1.16 6.35-2.58 2.71-1.42 4.76-2.59t3.97-1.17q2.58 0 3.84 1.92l5.93 7.51q-3.43 4.01-7.69 6.73-4.25 2.71-8.89 4.34-4.63 1.63-9.43 2.29-4.81.67-9.31.67-8.94 0-16.62-2.96-7.68-2.97-13.36-8.77-5.68-5.8-8.94-14.36-3.25-8.56-3.25-19.83 0-8.77 2.84-16.49 2.84-7.73 8.14-13.45 5.3-5.72 12.94-9.06 7.64-3.34 17.24-3.34 8.1 0 14.95 2.59t11.77 7.56q4.93 4.97 7.73 12.19 2.79 7.22 2.79 16.49 0 4.68-1 6.3-1 1.63-3.84 1.63Z"/></svg>