<svg xmlns="http://www.w3.org/2000/svg" width="48" height="48" viewBox="0 0 48 48"><rect width="100%" height="100%" fill="#DDDDDD"/><path fill="#999999" d="M11.915 18.155v11.57h-2.16v-11.57h2.16Zm8.67 4.38-.52.72q-.08.11-.17.17-.08.07-.24.07-.15 0-.3-.09-.14-.1-.34-.21-.2-.12-.48-.21-.27-.09-.68-.09-.52 0-.91.19-.4.18-.66.54-.26.35-.38.85-.13.5-.13 1.13 0 .66.14 1.17.14.51.4.86.27.35.64.53.38.18.85.18t.76-.12q.3-.12.5-.26t.34-.25q.15-.12.34-.12.24 0 .36.19l.56.72q-.32.38-.71.64-.38.26-.79.42-.42.15-.85.22-.44.06-.87.06-.76 0-1.43-.28-.67-.29-1.18-.83-.5-.55-.79-1.33-.3-.79-.3-1.8 0-.9.26-1.68.26-.77.77-1.33.5-.57 1.25-.89.74-.32 1.71-.32.92 0 1.61.3.69.3 1.24.85Zm4.95-1.15q.91 0 1.66.3.75.3 1.28.84t.82 1.33q.29.78.29 1.75 0 .98-.29 1.76t-.82 1.34q-.53.55-1.28.84-.75.3-1.66.3-.92 0-1.67-.3-.76-.29-1.29-.84-.53-.56-.82-1.34-.29-.78-.29-1.76 0-.97.29-1.75.29-.79.82-1.33t1.29-.84q.75-.3 1.67-.3Zm0 6.94q1.02 0 1.51-.69.5-.69.5-2.01 0-1.33-.5-2.03-.49-.69-1.51-.69-1.04 0-1.54.7t-.5 2.02q0 1.32.5 2.01.5.69 1.54.69Zm7.27-6.45.14.65q.24-.25.52-.46.28-.21.58-.36.31-.15.66-.23.36-.09.77-.09.67 0 1.19.23.52.23.87.64.35.41.53.99.18.57.18 1.26v5.22h-1.98v-5.22q0-.76-.34-1.17-.34-.41-1.05-.41-.51 0-.96.23-.45.23-.85.63v5.94h-1.97v-8.21h1.21q.38 0 .5.36Z"/></svg>