<svg xmlns="http://www.w3.org/2000/svg" width="800" height="600" viewBox="0 0 800 600"><rect width="100%" height="100%" fill="#DDDDDD"/><path fill="#999999" d="M184.84 240.89v95.44h-17.82v-95.44h17.82Zm35.04 95.44h-16.3v-67.72h9.97q3.17 0 4.16 2.97l1.05 5.02q1.78-1.98 3.73-3.63t4.16-2.84q2.21-1.19 4.75-1.88t5.58-.69q6.4 0 10.52 3.46 4.13 3.47 6.17 9.21 1.59-3.37 3.96-5.78 2.38-2.4 5.22-3.92t6.04-2.25q3.2-.72 6.43-.72 5.61 0 9.97 1.71 4.35 1.72 7.32 5.02 2.98 3.3 4.53 8.05 1.55 4.75 1.55 10.89v43.1h-16.3v-43.1q0-6.47-2.84-9.73-2.84-3.27-8.32-3.27-2.51 0-4.65.86-2.15.86-3.76 2.47-1.62 1.62-2.54 4.06-.93 2.44-.93 5.61v43.1h-16.37v-43.1q0-6.8-2.74-9.9-2.74-3.1-8.02-3.1-3.56 0-6.63 1.75t-5.71 4.78v49.57Zm130.02-17.49v-11.42q-7.06.33-11.88 1.22-4.81.89-7.72 2.28-2.9 1.39-4.16 3.23-1.25 1.85-1.25 4.03 0 4.29 2.54 6.14 2.54 1.85 6.63 1.85 5.02 0 8.68-1.82 3.67-1.81 7.16-5.51Zm-34.45-35.57-2.9-5.22q11.68-10.69 28.11-10.69 5.94 0 10.63 1.95 4.69 1.94 7.92 5.41 3.23 3.46 4.92 8.28 1.68 4.82 1.68 10.56v42.77h-7.39q-2.31 0-3.57-.69-1.25-.7-1.98-2.81l-1.45-4.88q-2.57 2.31-5.01 4.06-2.45 1.75-5.09 2.93-2.64 1.19-5.64 1.82-3 .63-6.63.63-4.29 0-7.92-1.16-3.63-1.15-6.27-3.46-2.64-2.31-4.09-5.75-1.46-3.43-1.46-7.98 0-2.58.86-5.12t2.81-4.85q1.94-2.31 5.05-4.35 3.1-2.05 7.62-3.57t10.53-2.47q6-.96 13.72-1.16v-3.96q0-6.8-2.9-10.06-2.9-3.27-8.38-3.27-3.96 0-6.57.92-2.61.93-4.59 2.08-1.98 1.16-3.59 2.08-1.62.93-3.6.93-1.72 0-2.9-.89-1.19-.9-1.92-2.08Zm90.42 17.55q3.04 0 5.28-.82 2.25-.83 3.73-2.28 1.49-1.45 2.24-3.5.76-2.04.76-4.49 0-5.01-3-7.95-3-2.94-9.01-2.94-6 0-9.01 2.94-3 2.94-3 7.95 0 2.38.76 4.43.76 2.04 2.24 3.53 1.49 1.48 3.76 2.31 2.28.82 5.25.82Zm18.42 38.55q0-1.98-1.19-3.24-1.19-1.25-3.24-1.95-2.04-.69-4.78-1.02-2.74-.33-5.81-.49-3.07-.17-6.34-.3-3.26-.13-6.36-.53-2.71 1.52-4.39 3.57-1.69 2.04-1.69 4.75 0 1.78.89 3.33.9 1.55 2.84 2.67 1.95 1.13 5.05 1.75 3.1.63 7.59.63 4.56 0 7.86-.69 3.3-.7 5.44-1.92 2.15-1.22 3.14-2.9.99-1.68.99-3.66Zm-3.24-68.45h19.47V277q0 2.9-3.5 3.56l-6.07 1.12q1.39 3.5 1.39 7.66 0 5.01-2.02 9.07-2.01 4.06-5.57 6.9-3.57 2.84-8.42 4.39-4.85 1.55-10.46 1.55-1.98 0-3.83-.2-1.84-.2-3.63-.53-3.16 1.92-3.16 4.29 0 2.05 1.88 3.01 1.88.95 4.98 1.35 3.1.4 7.06.5 3.96.09 8.12.42 4.16.33 8.12 1.16 3.96.82 7.06 2.61 3.1 1.78 4.98 4.85 1.88 3.07 1.88 7.88 0 4.49-2.21 8.72-2.21 4.22-6.4 7.52t-10.3 5.31q-6.1 2.02-13.89 2.02-7.65 0-13.33-1.49-5.68-1.48-9.44-3.96-3.76-2.47-5.61-5.71-1.85-3.23-1.85-6.73 0-4.75 2.87-7.95 2.88-3.2 7.89-5.12-2.7-1.38-4.29-3.69-1.58-2.31-1.58-6.08 0-1.51.56-3.13.56-1.62 1.65-3.2 1.09-1.59 2.74-3.01 1.65-1.41 3.89-2.54-5.15-2.77-8.08-7.39-2.94-4.62-2.94-10.82 0-5.02 2.01-9.08 2.02-4.06 5.61-6.93 3.6-2.87 8.52-4.39 4.91-1.51 10.72-1.51 4.36 0 8.19.89 3.82.89 6.99 2.6Zm42.64 23.76h30.75q0-3.16-.89-5.97-.89-2.8-2.67-4.92-1.78-2.11-4.52-3.33-2.74-1.22-6.37-1.22-7.06 0-11.12 4.03-4.06 4.02-5.18 11.41Zm41.58 9.84h-41.91q.39 5.21 1.85 9.01 1.45 3.79 3.82 6.27 2.38 2.47 5.65 3.69 3.26 1.22 7.22 1.22t6.83-.92q2.88-.92 5.02-2.05 2.15-1.12 3.76-2.04 1.62-.93 3.14-.93 2.04 0 3.03 1.52l4.69 5.94q-2.71 3.17-6.07 5.31-3.37 2.15-7.03 3.44-3.66 1.28-7.46 1.81-3.79.53-7.36.53-7.06 0-13.13-2.34-6.07-2.35-10.56-6.93-4.49-4.59-7.06-11.36-2.58-6.76-2.58-15.67 0-6.93 2.25-13.03 2.24-6.11 6.43-10.63 4.19-4.52 10.23-7.16 6.04-2.64 13.63-2.64 6.4 0 11.81 2.04 5.42 2.05 9.31 5.98 3.89 3.92 6.1 9.63 2.22 5.71 2.22 13.04 0 3.69-.8 4.98-.79 1.29-3.03 1.29Zm15.51-1.26v-13.59h34.19v13.59h-34.19Zm81.97 17.89h24.49q2.64 0 4.19 1.48 1.55 1.49 1.55 3.93v9.77H567.5v-5.41q0-1.65.7-3.47.69-1.81 2.21-3.26l28.97-29.04q3.63-3.7 6.5-7.07 2.88-3.36 4.79-6.66 1.91-3.3 2.94-6.7 1.02-3.4 1.02-7.16 0-3.43-.99-6.04t-2.81-4.39q-1.81-1.78-4.35-2.67-2.54-.89-5.71-.89-2.9 0-5.38.82-2.48.83-4.39 2.31-1.91 1.49-3.23 3.47-1.32 1.98-1.98 4.35-1.13 3.04-2.91 4.03-1.78.99-5.14.46l-8.58-1.52q.99-6.86 3.82-12.04 2.84-5.18 7.1-8.65 4.26-3.46 9.77-5.21t11.84-1.75q6.6 0 12.08 1.94 5.48 1.95 9.37 5.52 3.9 3.56 6.08 8.58 2.17 5.01 2.17 11.15 0 5.28-1.55 9.77-1.55 4.49-4.16 8.58-2.6 4.09-6.1 7.92-3.5 3.83-7.33 7.79l-21.51 21.97q3.1-.92 6.17-1.42 3.07-.49 5.84-.49Z"/></svg>