<?xml version="1.0" encoding="iso-8859-1"?>
<!-- Generator: Adobe Illustrator 19.0.0, SVG Export Plug-In . SVG Version: 6.00 Build 0)  -->
<svg version="1.1" id="Capa_1" xmlns="http://www.w3.org/2000/svg" xmlns:xlink="http://www.w3.org/1999/xlink" x="0px" y="0px"
	 viewBox="0 0 491.602 491.602" style="enable-background:new 0 0 491.602 491.602;" xml:space="preserve">
<g>
	<g>
		<path d="M93.251,222.7l-2.2-0.1c-0.8,0-1.2-0.1-2.6-0.1c-2.3,0-4.6,0.2-6.9,0.6c-9.2,1.6-17.6,6.8-23.3,14.4
			c-2.9,3.8-5,8.1-6.3,12.7l-0.5,1.8l-0.4,2.1l-0.3,2.1l-0.1,1.2l-0.1,1.1v0.3v1.1v0.5l-0.1,2.2l-0.7,17.4
			c-0.9,23.3-1.6,46.6-2.1,70s-0.9,46.8-1.1,70.2l-0.1,17.6l-0.1,8.8v1.1l0.1,1.8c0.1,1.3,0.1,2.7,0.3,4c0.3,2.7,0.9,5.3,1.8,7.9
			c3.3,10.4,10.7,19.2,20.2,24.5c2.4,1.3,4.9,2.4,7.5,3.3c2.6,0.8,5.1,1.5,8.6,1.9c2.1,0.3,2.1,0.2,3,0.2l2.1,0.1h1.1h4.4
			c94,0.1,188.2-1,281.9,0.2c8.3,0.1,21.4-3.4,25.6-5.8c8.2-4.9-2.5-9-18.3-12.1c-52.3-10.3-115.9-14.8-180.5-16
			c-38.6-0.8-77.2-1.6-115.9-2.4c0.3-0.1-0.8-0.3-1.4-0.6c-0.7-0.3-1.3-0.8-1.8-1.3c-1.1-1-1.8-2.4-2-3.8c-0.1-0.3-0.1-0.7-0.1-1
			c0-0.2,0-0.4,0-0.5v-1.8l0.1-7.3l0.3-14.6l0.9-58.4c0.2-19.5,0.4-39,0.6-58.5l0.2-29.3v-14.6v-3.3V260v-0.9c0-0.2,0-0.8,0.1-0.7
			c0,0.1,0,0.1,0,0.2c-0.1,0.5,0,0,0.1-0.2s0.1-0.4,0.3-0.6c0.4-0.8,1.1-1.6,1.9-2c0.4-0.2,0.8-0.3,1.3-0.5c0.2-0.1,0.5-0.1,0.7-0.1
			c-0.1,0,0.9,0,1.4,0h1.8l29.3-0.2c19.5-0.3,39.1-0.6,58.7-0.9c19.4,0.4,38.7,0.7,58.1,1.1l92.1,1l46,0.2h23h2.9h1.4h0.7h0.1h1h0.7
			c0.3,0,0,0,0,0c-0.3,0-0.7-0.1-0.4,0c0.5,0.1,1,0.3,1.4,0.7c0.5,0.4,0.8,0.8,1,1.3c0.1,0.2,0.1,0.5,0.2,0.8c0,0.1,0,0.2,0,0.2
			c0,0.1,0,0,0,0.6v2.9l0.2,23l0.6,45.9c0.5,30.6,1.2,61.2,2.3,91.8c0.1,4.3,0.3,8.6,0.6,12.7c0.1,2.1,0.3,4.1,0.4,6.1
			c0.1,1,0.2,2,0.2,2.9l0.1,1.4l0.1,0.7v0.4l0,0c0,0.2,0-1.5,0-0.8l0,0v0.1v0.2l0.1,1.4v0.7l0,0c0,0,0.2,0,0.2,0.5
			c0.1,0.7,0,1.4,0,2.1c-0.2,1.4-0.6,2.8-1.2,4.1c-2.3,5.5-8,8.4-7,13c0.5,2,2.6,4.1,6.6,4.9s10.1,0.1,16.2-4.3c3-2.2,6-5.3,8.2-9.4
			c2.3-3.8,3.7-10,3.9-13.9c0.8-7.4,1.4-15.6,1.6-24.5c0.8-32,1.6-64.2,2.4-96.4l0.8-48.3l0.1-12.1v-6.3c-0.1-3.4-0.5-6.8-1.4-10.1
			c-3.6-13.4-14.4-24.2-27.7-27.9c-1.4-0.3-2.5-0.7-4.3-0.9c-1.5-0.2-3.7-0.5-4.1-0.5l-1.2-0.1h-2h-2.4h-9.7l-19.4,0.1h-5
			c4.7-12.2,8.2-25.6,10.7-39.8c1.3-7.4,2.3-15.1,3-22.8c0.4-3.9,0.7-7.8,1-11.7l0.2-2.9v-0.7v-0.2v-0.9V140v-1.5v-5.9
			c-0.7-42.7-23.3-84.7-59.6-109.3c-18.1-12.2-39.3-20.2-61.3-22.5c-2.7-0.2-5.5-0.3-8.2-0.5l-4.1-0.2l-2.1-0.1h-0.3h-1.2h-0.4
			l-0.9,0.1l-6.9,1l-3.6,0.2l-4.3,0.6c-5.8,0.9-11.7,1.9-16.8,3.5c-2.6,0.8-5.3,1.5-7.9,2.4l-7.6,3.1c-5.2,1.5-10.1,4-15.1,6.1
			c-4.9,2.3-9.6,5.2-14.3,7.9c-29.2,18.7-51,49.1-58.9,83.2c-1.2,4.2-1.8,8.5-2.4,12.9c-0.3,2.2-0.6,4.3-0.8,6.5l-0.3,6.5l-0.2,6.5
			c-0.1,2.2,0.1,3.8,0.1,5.8l0.3,11.2c0.5,15,1.2,29.9,2.3,44.8c0.6,8,1.9,15.4,4.1,20.8l-10.6,0.2L93.251,222.7z M138.651,201.5
			c0.9-15.6,1.8-31.4,2.4-47.1l0.4-11.8l0.8-10.4c0.3-3.4,1.1-6.7,1.6-10.1c0.5-3.4,1.7-6.6,2.4-9.9c3-10.5,7.4-20.5,13.2-29.9
			c6-9.2,13.3-17.5,21.7-24.8c8.3-7.3,18.1-12.9,28.4-17.3c5.1-2.3,10.5-3.7,15.9-5.3c5.3-0.9,9.9-2.2,16.7-2.5
			c20.4,1.6,39.4,8.4,55.8,18.5c8.2,5.2,15.6,11.5,22.4,18.3c6.5,7.1,12.2,14.9,16.9,23.2c4.3,8.5,8,17.5,10.1,26.9
			c0.7,2.4,0.7,4.4,1.2,6.5c0.4,2.1,0.9,4.1,0.9,7.2l0.5,8.6l0.1,7.6c0.1,23,0.1,45.9-0.5,68.8c0,0.5,0,1.1,0.1,1.6l-15.2,0.1
			l-77.5,0.9l-123.2,1.8C136.351,217.5,138.151,210.2,138.651,201.5z"/>
		<path d="M265.151,357.2c-0.1,1.4-0.5,3.7-1,5.5c-1.3,1.5-2.8,2.8-4.4,3.9c-4.9,3.5-10.7,4.3-16.1,3.2c-5.3-1.1-10.5-4.2-14.6-9.6
			c-1.2-1.5-2.9-2.9-5.4-4.2c-2.5-1.2-6-2.4-10.5-2.2c-4.1,0.2-7.7,1.6-10.2,4.6c-2.3,2.9-3.5,7.3-2.3,12.1c2,8.5,6.5,16.6,13,23.1
			c6.6,6.4,14.9,11,24.5,12.6c14.4,2.5,30.3-2,41.2-11.6c11.1-9.5,17.4-23.4,17.6-37.7c-0.7,0.4-1.5,0.8-2.2,1.2
			c0.7-0.6,1.5-1,2.2-1.2c1.8-5.7,2.3-12.7,1.1-19.3c-1.2-6.7-3.9-13.2-8-18.9c-4.1-5.7-9.4-10.6-15.6-14.2
			c-1.6-0.9-3.2-1.7-4.8-2.5c-1.7-0.7-3.3-1.3-5-2c-1.7-0.5-3.5-1-5.2-1.4c-1.9-0.4-4.1-0.7-6.2-1l-0.8-0.1h-0.5h-0.9l-1.8-0.1h-0.4
			h-0.2h-1.2h-0.2l-1.3,0.1l-2.7,0.1c-3.6,0.3-7.2,0.9-10.6,1.9c-7,2-13.5,5.3-19.2,9.7c-5.7,4.4-10.5,9.8-14.2,16
			c-1.9,3-3.5,6.3-4.8,9.7c-0.7,1.7-1.2,3.4-1.7,5.1l-0.7,2.6l-0.6,3.1c-0.7,3.8,2.9,5.8,5.2,6.9c4.8,1.9,9,0,12.4-3.1
			c11.7-10,20.7-13.1,28.2-15.9c2.3-0.8,4.7-1.1,7-1.1c0.6,0,1.1,0,1.7,0.1l0.9,0.1h0.4h0.2h0.1h0.1l0,0l0,0c-0.3,0,0.8,0-0.8,0
			c1.8,0.3,4.3,0.6,4.4,1c0.4,0.2,1.8,0.8,2.6,1.2c0.9,0.5,1.8,1.1,2.6,1.7c1.6,1.3,3.1,2.7,4.3,4.3c2.3,3.2,3.8,6.8,4.2,10.4
			c0.1,0.5,0.2,0.9,0.2,1.4l0.1,0.7v0.4l0,0l-0.1,2.6C265.151,357,265.051,356.9,265.151,357.2z"/>
	</g>
</g>
<g>
</g>
<g>
</g>
<g>
</g>
<g>
</g>
<g>
</g>
<g>
</g>
<g>
</g>
<g>
</g>
<g>
</g>
<g>
</g>
<g>
</g>
<g>
</g>
<g>
</g>
<g>
</g>
<g>
</g>
</svg>
