<svg id="Capa_1" enable-background="new 0 0 512 512" height="512" viewBox="0 0 512 512" width="512" xmlns="http://www.w3.org/2000/svg"><g><path d="m311.624 150.692c-11.998 0-22.007 8.646-24.141 20.033l-78.813 32.737h-28.57c-12.514 0-22.694 9.645-22.694 21.501v36.986c0 8.877 5.708 16.514 13.829 19.792v48.276c0 12.806 10.418 23.224 23.224 23.224s23.224-10.418 23.224-23.224v-42.823l69.8 28.993c2.134 11.387 12.144 20.034 24.141 20.034 13.547 0 24.568-11.021 24.568-24.568v-27.676c18.09-4.693 31.435-21.31 31.435-40.521 0-19.212-13.345-35.828-31.435-40.52v-27.677c0-13.547-11.021-24.567-24.568-24.567zm-93.941 65.301 69.374-28.816v112.56l-69.374-28.817zm-45.248 8.97c0-3.568 3.438-6.472 7.664-6.472h22.554v49.929h-22.553c-4.226 0-7.664-2.903-7.664-6.472v-36.985zm22.024 113.249c-4.519 0-8.195-3.676-8.195-8.195v-46.567h16.389v46.567c.001 4.519-3.676 8.195-8.194 8.195zm126.703-26.558c0 5.259-4.279 9.538-9.538 9.538s-9.538-4.279-9.538-9.538v-136.395c0-5.259 4.279-9.538 9.538-9.538s9.538 4.278 9.538 9.538zm31.436-68.198c0 10.948-6.76 20.582-16.406 24.698v-49.395c9.645 4.115 16.406 13.748 16.406 24.697z"/><path d="m443.069 384.492c-13.112 0-25.557 4.293-35.759 12.19l-34.065-34.065c25.637-28.161 39.3-63.398 40.98-99.103h27.303c3.46 16.053 17.761 28.123 34.834 28.123 19.651.001 35.638-15.986 35.638-35.637s-15.987-35.638-35.638-35.638c-17.073 0-31.373 12.07-34.834 28.123h-27.303c-1.68-35.704-15.343-70.941-40.98-99.103l34.065-34.065c10.15 7.855 22.527 12.148 35.566 12.19h.026c4.138 0 7.5-3.348 7.514-7.49.014-4.15-3.34-7.525-7.49-7.539-11.577-.038-22.462-4.567-30.649-12.754-16.978-16.979-16.978-44.606 0-61.585 8.225-8.225 19.16-12.754 30.793-12.754 11.632 0 22.567 4.529 30.792 12.754 8.226 8.225 12.755 19.16 12.755 30.792s-4.529 22.567-12.755 30.793c-1.927 1.927-4.03 3.674-6.254 5.194-3.427 2.341-4.306 7.018-1.965 10.444 2.341 3.425 7.017 4.306 10.444 1.964 2.992-2.045 5.82-4.392 8.403-6.976 11.064-11.064 17.156-25.774 17.156-41.42s-6.093-30.356-17.156-41.419-25.773-17.156-41.42-17.156-30.356 6.093-41.421 17.156c-21.036 21.037-22.679 54.218-4.961 77.173l-34.069 34.07c-28.162-25.637-63.398-39.3-99.103-40.98v-27.302c16.053-3.46 28.123-17.761 28.123-34.834-.001-19.651-15.988-35.638-35.639-35.638s-35.638 15.987-35.638 35.638c0 17.073 12.07 31.374 28.123 34.834v27.303c-35.704 1.68-70.941 15.343-99.103 40.98l-34.07-34.07c17.718-22.955 16.075-56.136-4.961-77.173-11.063-11.063-25.773-17.156-41.419-17.156s-30.356 6.093-41.42 17.156-17.157 25.774-17.157 41.42 6.093 30.356 17.156 41.42 25.773 17.156 41.42 17.156c13.112 0 25.557-4.293 35.759-12.19l34.075 34.076c-8.35 9.171-15.594 19.232-21.553 30.021-2.006 3.633-.688 8.204 2.945 10.211 3.632 2.007 8.204.688 10.211-2.944 6.48-11.733 14.622-22.538 24.199-32.115 55.928-55.929 146.935-55.93 202.865 0 55.931 55.931 55.931 146.935 0 202.866-55.93 55.929-146.935 55.929-202.865 0-37.935-37.935-51.506-93.324-35.414-144.552 1.244-3.959-.958-8.178-4.917-9.421-3.966-1.244-8.178.959-9.422 4.917-4.153 13.22-6.494 26.691-7.145 40.109h-27.197c-3.46-16.053-17.761-28.123-34.834-28.123-19.651-.001-35.638 15.986-35.638 35.637s15.987 35.638 35.638 35.638c17.073 0 31.373-12.07 34.834-28.123h27.18c1.695 36.329 15.902 71.405 41.114 99.092l-34.075 34.075c-10.202-7.897-22.647-12.19-35.759-12.19-15.647 0-30.356 6.093-41.42 17.157s-17.156 25.773-17.156 41.419 6.093 30.356 17.156 41.42 25.774 17.156 41.42 17.156c4.151 0 7.515-3.365 7.515-7.515s-3.364-7.515-7.515-7.515c-11.632 0-22.568-4.53-30.792-12.754-8.226-8.225-12.755-19.16-12.755-30.793 0-11.632 4.529-22.567 12.755-30.792 8.224-8.225 19.16-12.754 30.792-12.754s22.567 4.529 30.793 12.754c16.978 16.979 16.978 44.606.001 61.584-2.094 2.093-4.394 3.973-6.838 5.586-3.464 2.287-4.418 6.948-2.131 10.411 2.286 3.464 6.948 4.418 10.411 2.132 3.286-2.169 6.376-4.693 9.185-7.501 21.036-21.038 22.679-54.219 4.961-77.173l34.07-34.07c28.162 25.637 63.399 39.3 99.103 40.98v27.303c-16.053 3.46-28.123 17.761-28.123 34.834-.002 19.652 15.985 35.639 35.636 35.639s35.638-15.987 35.638-35.638c0-17.073-12.07-31.374-28.123-34.834v-27.303c35.704-1.68 70.941-15.343 99.103-40.98l34.069 34.07c-17.718 22.955-16.075 56.136 4.961 77.173 11.065 11.064 25.774 17.156 41.421 17.156s30.356-6.093 41.42-17.156 17.156-25.773 17.156-41.419-6.093-30.356-17.156-41.42-25.774-17.157-41.42-17.157zm-207.678-348.854c0-11.364 9.245-20.609 20.609-20.609s20.609 9.245 20.609 20.609-9.245 20.609-20.609 20.609-20.609-9.245-20.609-20.609zm-197.251 64.086c-8.226-8.225-12.755-19.16-12.755-30.793 0-11.632 4.529-22.567 12.755-30.792 8.224-8.225 19.16-12.754 30.792-12.754s22.567 4.529 30.793 12.754c16.978 16.979 16.978 44.606 0 61.585-8.225 8.225-19.16 12.754-30.793 12.754s-22.568-4.529-30.792-12.754zm438.222 135.667c11.364 0 20.609 9.245 20.609 20.609s-9.245 20.609-20.609 20.609-20.609-9.245-20.609-20.609 9.245-20.609 20.609-20.609zm-440.724 41.218c-11.364 0-20.609-9.245-20.609-20.609s9.245-20.609 20.609-20.609 20.609 9.246 20.609 20.609-9.245 20.609-20.609 20.609zm240.971 199.753c0 11.363-9.245 20.609-20.609 20.609s-20.609-9.245-20.609-20.609 9.245-20.609 20.609-20.609 20.609 9.245 20.609 20.609zm197.251-2.501c-8.224 8.225-19.16 12.754-30.792 12.754s-22.568-4.529-30.793-12.754c-16.978-16.979-16.978-44.606 0-61.585 8.225-8.225 19.16-12.754 30.793-12.754 11.632 0 22.567 4.529 30.792 12.754 8.226 8.225 12.755 19.16 12.755 30.793.001 11.631-4.529 22.566-12.755 30.792z"/></g></svg>