<svg id="Logo" xmlns="http://www.w3.org/2000/svg" viewBox="0 0 779.18 201.4"><defs><style>.cls-1{fill:#231f20;}.cls-2{fill:#fff;}.cls-3{fill:#961b1e;}.cls-4{fill:#d82128;}.cls-5{fill:#626366;}.cls-6{fill:#971c20;}</style></defs><polygon class="cls-1" points="144.81 52.12 140.04 52.22 135.38 52.42 130.71 52.71 126.14 53.11 121.67 53.61 117.2 54.3 108.75 55.89 104.58 56.88 100.61 57.98 96.73 59.17 92.96 60.46 89.28 61.75 85.81 63.24 82.43 64.73 79.15 66.33 76.07 68.01 73.19 69.8 70.41 71.69 67.83 73.57 65.44 75.56 63.16 77.55 61.17 79.63 59.28 81.82 57.59 84 56.2 86.29 54.91 88.57 53.92 90.96 53.03 93.34 52.43 95.83 52.13 98.31 52.03 100.79 52.13 103.28 52.43 105.76 53.03 108.24 53.92 110.63 54.91 112.91 56.2 115.3 57.59 117.48 59.28 119.77 61.17 121.85 63.16 123.94 65.44 126.03 67.83 128.01 70.41 129.9 73.19 131.79 76.07 133.47 79.15 135.16 85.81 138.34 92.96 141.12 100.61 143.61 108.75 145.59 117.2 147.28 126.14 148.47 135.38 149.17 144.81 149.47 149.68 149.37 154.35 149.17 159.02 148.87 163.59 148.47 168.06 147.88 172.43 147.28 180.97 145.59 185.14 144.7 189.11 143.61 192.99 142.41 196.76 141.12 200.44 139.83 203.92 138.34 207.3 136.85 210.57 135.16 213.55 133.47 216.54 131.79 219.31 129.9 221.9 128.01 224.28 126.03 226.57 123.94 228.56 121.85 230.44 119.77 232.13 117.48 233.52 115.3 234.81 112.91 235.81 110.63 236.7 108.24 237.3 105.76 237.59 103.28 237.69 100.79 237.59 98.31 237.3 95.83 236.7 93.34 235.81 90.96 234.81 88.57 233.52 86.29 232.13 84 230.44 81.82 228.56 79.63 226.57 77.55 224.28 75.56 221.9 73.57 219.31 71.69 216.54 69.8 213.55 68.01 210.57 66.33 203.92 63.24 196.76 60.46 189.11 57.98 180.97 55.89 172.43 54.3 163.59 53.11 154.35 52.32 144.81 52.12"/><polygon class="cls-2" points="226.78 96.68 226.68 98.76 226.38 100.84 225.89 102.93 225.19 105.01 224.2 106.99 223.11 108.98 221.82 110.86 220.33 112.75 218.74 114.64 216.96 116.42 214.97 118.21 212.79 119.9 210.51 121.48 208.13 123.07 205.54 124.56 202.77 125.95 199.99 127.34 197.01 128.63 193.94 129.92 190.66 131.11 187.39 132.1 183.91 133.19 176.77 134.88 169.23 136.27 161.39 137.36 157.32 137.66 153.25 137.96 149.08 138.06 144.81 138.16 136.48 137.96 128.34 137.36 120.5 136.27 112.96 134.88 105.81 133.19 99.06 131.11 92.72 128.63 86.86 125.95 81.6 123.07 79.22 121.48 76.94 119.9 74.75 118.21 72.77 116.42 70.98 114.64 69.29 112.75 67.9 110.86 66.61 108.98 65.52 106.99 64.53 105.01 63.84 102.93 63.34 100.84 63.04 98.76 62.94 96.68 63.04 94.49 63.34 92.41 63.84 90.32 64.53 88.24 65.52 86.26 66.61 84.27 67.9 82.38 69.29 80.5 70.98 78.61 72.77 76.83 74.75 75.14 76.94 73.45 79.22 71.77 81.6 70.18 84.18 68.69 86.86 67.3 89.74 65.92 92.72 64.62 95.79 63.33 99.06 62.24 105.81 60.16 112.96 58.37 120.5 56.98 128.34 55.99 132.41 55.59 136.48 55.29 140.65 55.2 144.81 55.09 153.25 55.29 161.39 55.99 169.23 56.98 176.77 58.37 183.91 60.16 190.66 62.24 197.01 64.62 202.77 67.3 208.13 70.18 210.51 71.77 212.79 73.45 214.97 75.14 216.96 76.83 218.74 78.61 220.33 80.5 221.82 82.38 223.11 84.27 224.2 86.26 225.19 88.24 225.89 90.32 226.38 92.41 226.68 94.49 226.78 96.68"/><polygon class="cls-3" points="133.3 74.15 130.72 75.44 129.83 76.03 129.14 76.73 128.63 77.42 128.44 78.02 128.34 78.71 128.54 79.41 128.93 80.1 129.53 80.8 131.32 82.19 133.9 83.67 137.07 85.16 138.36 83.77 140.05 82.49 142.33 81.19 144.91 80.1 147.99 79.11 151.46 78.11 155.33 77.23 159.5 76.43 164.06 75.74 168.93 75.04 179.55 73.95 191.16 73.06 203.76 72.26 199.69 69.88 195.23 67.6 185.1 67.5 175.38 67.6 166.44 68.09 158.11 68.79 150.57 69.78 143.82 70.97 138.06 72.46 133.3 74.15"/><polygon class="cls-3" points="217.95 93.2 217.75 91.12 217.45 89.13 216.86 87.05 215.97 85.06 214.87 83.18 213.58 81.3 212.09 79.41 210.41 77.62 195.43 79.01 188.08 79.81 181.03 80.8 174.58 81.99 168.83 83.38 166.35 84.07 164.06 84.86 162.08 85.76 160.39 86.75 159.1 87.64 158.21 88.64 157.91 89.23 157.81 89.73 157.81 90.32 157.91 90.92 158.21 91.52 158.71 92.11 160.19 93.4 162.38 94.69 165.46 95.98 174.88 99.85 184.8 104.12 194.83 108.78 199.69 111.16 204.46 113.74 207.43 111.46 210.11 109.18 212.39 106.7 214.38 104.22 215.87 101.54 216.96 98.86 217.65 96.08 217.85 94.69 217.95 93.2"/><polygon class="cls-2" points="160.39 86.75 162.08 85.76 164.06 84.86 166.35 84.07 168.83 83.38 174.59 81.99 181.03 80.8 188.08 79.81 195.43 79.01 202.97 78.22 210.41 77.62 207.33 74.84 203.76 72.26 191.16 73.06 179.55 73.95 168.93 75.04 159.5 76.43 155.33 77.23 151.46 78.11 147.99 79.11 144.91 80.1 142.33 81.19 140.05 82.49 138.36 83.77 137.07 85.16 133.9 83.67 131.32 82.19 129.53 80.8 128.94 80.1 128.54 79.41 128.34 78.71 128.44 78.02 128.64 77.42 129.14 76.73 129.83 76.03 130.72 75.44 133.3 74.15 135.58 73.25 138.06 72.46 143.82 70.97 150.57 69.78 158.11 68.79 166.45 68.1 175.38 67.6 185.1 67.5 195.23 67.6 191.45 66.01 187.48 64.52 183.31 63.13 178.85 61.94 172.99 61.74 167.24 61.64 156.32 61.84 146.1 62.34 136.58 63.33 127.94 64.52 120.2 66.11 113.35 67.8 107.4 69.78 104.52 71.07 102.14 72.36 100.16 73.75 98.57 75.14 97.48 76.53 96.68 77.92 96.19 79.31 96.09 80.8 96.28 82.19 96.68 83.57 97.28 84.86 98.07 86.16 99.06 87.35 100.16 88.44 101.35 89.53 102.64 90.52 106.41 92.91 110.97 95.48 116.23 98.16 122.39 100.94 127.64 103.32 133.7 106.4 146.99 113.44 153.64 117.12 159.7 120.69 164.86 123.86 168.93 126.64 174.19 125.65 179.34 124.46 184.21 123.07 188.77 121.48 193.14 119.8 197.21 117.91 200.98 115.93 204.46 113.75 199.69 111.16 194.83 108.78 184.8 104.12 174.88 99.85 165.46 95.98 162.38 94.69 160.19 93.4 158.71 92.11 158.21 91.52 157.91 90.92 157.81 90.33 157.81 89.73 157.91 89.23 158.21 88.64 159.1 87.64 160.39 86.75"/><polygon class="cls-4" points="102.64 90.52 100.16 88.44 99.06 87.35 98.07 86.16 97.28 84.87 96.68 83.58 96.28 82.19 96.09 80.8 96.19 79.31 96.68 77.92 97.48 76.53 98.57 75.14 100.16 73.75 102.14 72.36 104.52 71.07 107.4 69.78 110.28 68.79 113.35 67.8 120.2 66.11 127.94 64.52 132.21 63.92 136.57 63.33 141.24 62.84 146.1 62.34 156.33 61.84 161.68 61.64 167.24 61.64 178.85 61.94 174.98 60.95 171.01 60.16 166.94 59.46 162.68 58.87 158.31 58.47 153.94 58.07 149.48 57.87 144.81 57.87 137.37 58.07 130.12 58.57 123.18 59.46 116.43 60.65 110.08 62.14 104.03 63.92 98.37 65.92 93.21 68.19 88.45 70.68 84.28 73.45 82.39 74.84 80.61 76.33 79.02 77.92 77.53 79.51 76.24 81.1 75.05 82.68 74.05 84.37 73.26 86.16 72.67 87.84 72.17 89.63 71.87 91.42 71.78 93.2 71.87 95.09 72.17 96.88 72.67 98.66 73.26 100.35 74.05 102.13 75.05 103.82 76.24 105.41 77.53 106.99 79.02 108.58 80.61 110.17 82.39 111.56 84.28 113.05 86.36 114.44 88.45 115.73 93.21 118.31 98.37 120.59 104.03 122.57 110.08 124.36 116.43 125.85 123.18 127.04 130.12 127.93 137.37 128.43 144.81 128.63 151.06 128.53 157.22 128.13 163.17 127.54 168.93 126.64 164.86 123.86 159.69 120.69 153.64 117.12 146.99 113.45 140.25 109.78 133.7 106.4 127.64 103.42 122.39 100.94 116.23 98.16 110.97 95.48 106.41 92.9 102.64 90.52"/><polygon class="cls-5" points="395.14 80.09 388.82 80.09 388 79.98 387.29 79.78 386.58 79.47 385.96 79.07 385.56 78.45 385.15 77.94 384.94 77.23 384.84 76.52 384.94 75.8 385.15 75.19 385.56 74.58 385.96 74.07 386.58 73.66 387.19 73.35 388 73.15 388.82 73.05 404.33 73.05 409.23 64.47 388.82 64.47 386.58 64.47 384.54 64.78 382.8 65.19 381.27 65.7 379.84 66.31 378.72 67.03 377.7 67.84 376.88 68.76 376.17 69.68 375.66 70.7 374.85 72.74 374.54 74.68 374.44 76.52 374.54 78.35 374.85 80.29 375.66 82.33 376.17 83.25 376.88 84.27 377.7 85.09 378.72 86 379.84 86.72 381.27 87.33 382.8 87.84 384.54 88.25 386.58 88.55 388.82 88.55 395.14 88.55 395.96 88.55 396.68 88.76 397.39 89.07 397.9 89.57 398.41 90.08 398.82 90.7 399.02 91.31 399.13 92.02 399.02 92.74 398.82 93.35 398.41 93.97 397.9 94.58 397.39 94.98 396.68 95.29 395.96 95.49 395.14 95.6 374.94 95.6 374.94 104.06 395.14 104.06 397.39 103.96 399.33 103.76 401.17 103.35 402.7 102.84 404.02 102.23 405.25 101.51 406.16 100.6 407.09 99.78 407.7 98.75 408.31 97.84 409.02 95.8 409.43 93.86 409.54 92.02 409.33 89.27 408.62 86.92 408.11 85.9 407.49 84.88 406.68 83.97 405.86 83.15 404.84 82.43 403.82 81.82 401.37 80.9 398.41 80.29 395.14 80.09"/><polygon class="cls-5" points="437.28 64.58 428.72 64.58 426.47 64.68 424.53 64.98 422.7 65.29 421.16 65.91 419.84 66.52 418.62 67.23 417.7 68.05 416.77 68.97 416.16 69.89 415.55 70.9 414.84 72.85 414.43 74.88 414.33 76.72 414.33 92.02 414.43 93.86 414.84 95.8 415.55 97.84 416.16 98.75 416.77 99.78 417.7 100.6 418.62 101.51 419.84 102.23 421.16 102.84 422.7 103.35 424.53 103.76 426.47 103.96 428.72 104.06 446.77 104.06 448.61 100.7 451.36 95.6 429.02 95.6 428.2 95.49 427.49 95.29 426.77 94.98 426.26 94.58 425.76 93.97 425.35 93.35 425.14 92.74 425.04 92.02 425.04 76.72 425.14 76 425.35 75.29 425.76 74.68 426.26 74.17 426.77 73.66 427.49 73.35 428.2 73.15 429.02 73.05 437.38 73.05 438.2 73.15 438.92 73.35 439.63 73.66 440.14 74.07 440.55 74.58 440.85 75.29 440.96 76 441.06 76.92 440.96 77.84 440.76 78.66 440.45 79.27 439.94 79.78 439.43 80.19 438.82 80.5 437.38 80.7 432.38 80.7 428 88.56 440.55 88.56 442.39 88.45 444.12 88.15 445.55 87.74 446.77 87.12 447.8 86.41 448.71 85.6 449.53 84.68 450.14 83.76 450.96 81.82 451.47 79.98 451.67 78.56 451.67 77.54 451.67 77.43 451.67 75.7 451.36 73.35 450.96 72.13 450.35 70.8 449.63 69.48 448.51 68.25 447.59 67.33 446.47 66.62 445.24 66 443.92 65.5 442.49 65.09 440.85 64.78 437.28 64.58"/><polygon class="cls-5" points="320.87 64.37 315.16 72.95 315.16 64.48 304.04 64.48 304.04 104.06 315.16 104.06 315.16 85.19 315.36 82.64 315.77 80.29 316.69 78.25 317.91 76.52 318.62 75.7 319.44 74.98 320.36 74.48 321.48 73.96 322.6 73.56 323.83 73.25 326.59 73.05 330.15 73.05 332.4 69.07 335.05 64.37 320.87 64.37"/><polygon class="cls-5" points="268.43 104.06 279.55 104.06 279.55 82.84 292.71 82.84 297.4 74.07 279.55 74.07 279.55 60.8 301.79 60.8 306.38 52.03 268.43 52.03 268.43 104.06"/><polygon class="cls-5" points="351.89 64.37 340.56 64.37 338.83 67.54 335.97 72.95 352.4 72.95 352.3 72.95 353.01 72.95 354.03 73.05 355.15 73.46 356.18 74.07 356.78 74.78 357.29 75.7 357.6 76.62 357.7 77.74 357.7 79.68 346.58 79.68 343.52 79.78 340.77 80.09 338.32 80.8 337.3 81.31 336.28 81.92 335.46 82.64 334.64 83.55 334.03 84.47 333.52 85.69 333.01 86.92 332.7 88.45 332.6 90.08 332.5 91.82 332.6 93.66 332.81 95.29 333.11 96.72 333.63 98.04 334.24 99.17 334.95 100.18 335.87 101 336.89 101.81 337.91 102.43 339.13 102.94 341.79 103.66 344.85 103.96 348.31 104.06 350.46 104.06 356.78 95.6 350.56 95.6 350.36 95.6 348.72 95.6 346.99 95.49 345.36 95.08 344.54 94.68 343.93 94.17 343.52 93.66 343.11 93.05 342.91 92.33 342.91 91.51 343.01 90.59 343.21 89.68 343.73 88.96 344.34 88.35 345.05 87.84 346.07 87.53 347.19 87.33 348.52 87.23 357.7 87.23 357.7 104.06 368.93 104.06 368.93 86 368.93 79.47 368.72 76.82 368.52 74.48 368.11 72.44 367.6 70.7 366.78 69.17 365.76 67.94 364.64 66.92 363.21 66.21 361.79 65.5 360.05 65.09 358.21 64.78 356.27 64.58 351.89 64.37"/><polygon class="cls-5" points="560.03 64.37 548.7 64.37 546.97 67.54 545.33 70.49 544.01 72.95 560.43 72.95 561.15 72.95 562.17 73.05 563.19 73.46 564.31 74.07 564.91 74.78 565.43 75.7 565.74 76.62 565.84 77.74 565.84 79.68 554.72 79.68 551.66 79.78 548.9 80.09 546.45 80.8 545.33 81.31 544.42 81.92 543.6 82.64 542.78 83.55 542.17 84.47 541.56 85.69 541.15 86.92 540.85 88.45 540.64 90.08 540.64 91.82 540.74 93.66 540.95 95.29 541.25 96.72 541.76 98.04 542.37 99.17 543.09 100.18 544.01 101 544.93 101.81 546.05 102.43 547.27 102.94 549.92 103.66 552.98 103.96 556.45 104.06 558.49 104.06 564.91 95.6 558.7 95.6 558.49 95.6 556.86 95.6 555.13 95.49 553.49 95.08 552.68 94.68 552.06 94.17 551.56 93.66 551.25 93.05 551.05 92.33 551.05 91.51 551.15 90.59 551.35 89.68 551.76 88.96 552.37 88.35 553.19 87.84 554.21 87.53 555.33 87.33 556.56 87.23 565.84 87.23 565.84 104.06 577.07 104.06 577.07 86 576.96 79.47 576.86 76.82 576.66 74.48 576.25 72.44 575.63 70.7 574.92 69.17 573.9 67.94 572.67 66.92 571.35 66.21 569.82 65.5 568.18 65.09 566.35 64.78 564.41 64.58 560.03 64.37"/><polygon class="cls-5" points="596.14 92.84 595.53 92.13 595.12 91.31 594.61 89.37 594.3 86.92 594.3 83.97 594.3 64.48 583.09 64.48 583.09 86.1 583.09 87.94 583.29 92.23 583.59 94.17 584 95.9 584.51 97.33 585.12 98.75 585.84 99.88 586.76 100.9 587.68 101.72 588.7 102.43 589.81 102.94 591.14 103.45 592.47 103.76 594 103.96 597.47 104.16 602.16 104.06 608.49 94.89 608.29 94.89 603.7 94.89 600.33 94.58 599 94.37 597.88 93.97 596.96 93.45 596.14 92.84"/><polygon class="cls-1" points="710.82 64.47 704.09 94.37 703.78 96.41 703.58 94.37 697.05 64.47 679.6 64.47 692.05 104.17 714.7 104.17 727.15 64.47 710.82 64.47"/><path class="cls-1" d="M655.32,81.11,653.79,81V72.85H656l2.55.2,1,.3.82.41.61.51.41.71.31.72.1,1-.1.92-.41.92-.51.71-.72.71-.92.41-1.12.41-1.32.2Zm22.24,11.83-.3-1.94-.41-1.73-.61-1.43-.72-1.23-1-1-1.33-.82-1.63-.61-2-.41,1.94-.61,1.84-.72,1.42-1,1.23-1.12,1-1.22.61-1.43.41-1.53.2-1.74-.3-2.55-.21-1.12-.51-1-.5-.81-.72-.82-.82-.72-1-.71L673,66.11l-1.33-.41L668.58,65l-3.88-.41-4.59-.1H637.26v39.58h16.53V89.58l1.84-.11,1.42.11,1.23.3.91.51.62.72.51.81.41,1.13.51,2.75.51,3,.51,2.66.71,2.65H679.6l-.91-4-.52-2.85Z"/><polygon class="cls-5" points="522.99 95.09 522.68 97.03 522.37 95.09 517.07 64.47 506.36 64.47 500.95 95.09 500.64 97.03 500.34 95.09 494.93 64.47 493.81 64.47 486.77 77.03 488.91 88.15 492.07 104.06 507.69 104.06 510.85 84.58 511.15 82.33 511.36 84.58 514.62 104.06 530.74 104.06 538.39 64.47 528.4 64.47 522.99 95.09"/><rect class="cls-5" x="609.3" y="64.48" width="11.22" height="50.4"/><polygon class="cls-1" points="710.82 64.47 704.09 94.37 703.78 96.41 703.58 94.37 697.05 64.47 679.6 64.47 692.05 104.17 714.7 104.17 727.15 64.47 710.82 64.47"/><polygon class="cls-5" points="473.3 64.37 467.59 72.95 467.59 64.48 456.46 64.48 456.46 104.06 467.59 104.06 467.59 85.19 467.79 82.64 468.3 80.29 469.12 78.25 470.34 76.52 471.06 75.7 471.88 74.98 472.79 74.48 473.91 73.96 475.04 73.56 476.26 73.25 477.58 73.15 479.01 73.05 482.59 73.05 484.83 69.07 487.49 64.37 473.3 64.37"/><polygon class="cls-2" points="497.79 120.03 487.96 149.37 497.79 149.37 507.71 149.37 497.79 120.03"/><polygon class="cls-4" points="522.28 138.42 526.3 130.88 517.62 132.43 517.73 126.95 505.95 136.04 505.64 136.15 505.53 135.84 508.33 115.9 502.44 119.52 497.79 110.21 497.79 110.21 497.79 110.21 497.79 110.21 497.79 110.21 493.14 119.52 487.25 115.9 490.04 135.84 489.94 136.15 489.63 136.04 477.85 126.95 477.95 132.43 469.28 130.88 473.3 138.42 467.93 140.28 482.39 149.37 487.97 149.37 497.79 120.03 507.61 149.37 513.18 149.37 527.65 140.28 522.28 138.42"/><polygon class="cls-6" points="497.79 110.21 502.44 119.52 508.33 115.9 505.53 135.84 505.64 136.15 505.95 136.04 517.73 126.95 517.62 132.43 526.3 130.88 522.28 138.42 527.65 140.28 513.18 149.37 507.61 149.37 497.79 120.03 497.79 110.21"/><polygon class="cls-1" points="466.95 136.76 465.92 134.9 268.43 134.9 268.43 149.37 474.08 149.37 458.79 139.55 466.95 136.76"/><polygon class="cls-1" points="528.62 136.76 529.65 134.9 727.14 134.9 727.14 149.37 521.5 149.37 536.78 139.55 528.62 136.76"/></svg>