<svg fill="none" xmlns="http://www.w3.org/2000/svg" viewBox="0 0 206 42">
<g clip-path="url(#clip0)">
<path d="M181.667 20.8491H175.904V4.66195H181.667V0H175.841C174.623 0.00414449 173.455 0.490017 172.594 1.35161C171.732 2.2132 171.246 3.38059 171.242 4.59906V20.9119C171.248 22.1298 171.735 23.296 172.596 24.1571C173.457 25.0183 174.623 25.5048 175.841 25.511H181.667V20.8491Z" fill="#CC0000"/>
<path d="M186.329 4.66195H192.091V20.8491H186.329V25.511H192.146C193.365 25.5069 194.532 25.021 195.394 24.1594C196.255 23.2978 196.741 22.1304 196.745 20.9119V4.59906C196.739 3.38122 196.253 2.21503 195.391 1.35388C194.53 0.49273 193.364 0.00619775 192.146 0L186.329 0V4.66195Z" fill="#CC0000"/>
<path d="M13.2391 34.8192C6.30509 34.8192 1.17144 31.1714 0.322388 25.2987H7.39786C8.34912 27.6572 11.1557 28.4434 13.2233 28.4434C16.0221 28.4434 18.1447 27.5943 18.1447 26.0063C18.1447 24.4182 17.1856 23.8365 12.4293 23.0975C7.57082 22.3899 1.06138 21.0613 1.06138 14.9764C1.06138 10.6918 4.81924 6.24213 12.7045 6.24213C18.9938 6.24213 23.6086 9.63049 24.4969 14.7641H17.2563C16.8318 13.4984 15.2988 12.4921 12.7045 12.4921C9.48119 12.4921 8.15258 13.6556 8.15258 14.6619C8.15258 16.0849 10.1652 16.5645 13.5535 17.0912C20.3302 18.2075 25.1966 19.6855 25.1966 25.6132C25.1966 31.0141 20.2202 34.8192 13.2391 34.8192Z" fill="#CC0000"/>
<path d="M41.4466 34.1352C33.4513 34.9843 29.2218 30.1651 29.2218 22.7044V14.7642H25.9435V8.57704H29.2218V0H36.2107V8.57704H41.4466V14.7642H36.2107V22.7987C36.2107 26.6038 37.956 28.0346 41.4466 27.8223V34.1352Z" fill="#CC0000"/>
<path d="M88.6321 34.772C85.6488 34.7848 82.7801 33.6243 80.6447 31.5409V41.1242H73.5692V6.93395H80.2909V9.78773C81.3721 8.6704 82.6689 7.78422 84.1027 7.18286C85.5364 6.58151 87.0774 6.27752 88.6321 6.2893C95.7784 6.2893 101.604 12.4292 101.604 20.4402C101.604 28.4513 95.7784 34.7327 88.6321 34.7327V34.772ZM87.6337 12.7673C83.7658 12.7673 80.6447 16.2107 80.6447 20.4402C80.6447 24.6698 83.7894 28.2233 87.6337 28.2233C91.478 28.2233 94.6148 24.8899 94.6148 20.4402C94.6148 15.9906 91.4702 12.7673 87.6337 12.7673Z" fill="#CC0000"/>
<path d="M110.865 0H103.876V34.1903H110.865V0Z" fill="#CC0000"/>
<path d="M120.228 23.2862C120.578 24.8302 121.446 26.2079 122.687 27.1905C123.929 28.173 125.469 28.7011 127.052 28.6871C128.209 28.7406 129.359 28.4758 130.377 27.9213C131.394 27.3669 132.24 26.5441 132.822 25.5425H140.259C138.687 31.1006 133.86 34.8506 127.083 34.8506C123.348 34.803 119.783 33.2803 117.166 30.6146C114.549 27.9489 113.092 24.3566 113.113 20.6211C113.113 12.7594 119.403 6.27359 127.083 6.27359C135.126 6.27359 141.792 12.5629 140.786 23.3176L120.228 23.2862ZM133.884 17.5708C133.508 16.0563 132.625 14.716 131.382 13.7722C130.14 12.8284 128.612 12.3379 127.052 12.3821C125.517 12.3863 124.026 12.8972 122.81 13.8354C121.595 14.7735 120.723 16.0866 120.33 17.5708H133.884Z" fill="#CC0000"/>
<path d="M154.945 17.0912C151.557 16.5645 149.544 16.0849 149.544 14.6619C149.544 13.6556 150.865 12.4921 154.096 12.4921C156.69 12.4921 158.223 13.4984 158.648 14.7641H165.896C165 9.63049 160.338 6.24213 154.104 6.24213C146.242 6.24213 142.461 10.6918 142.461 14.9764C142.461 21.0613 148.97 22.3899 153.837 23.1289C158.703 23.8679 159.552 24.5047 159.552 26.0377C159.552 27.5707 157.437 28.4748 154.631 28.4748C152.634 28.4748 149.914 27.6887 148.915 25.511H141.753C142.697 31.2578 147.783 34.8192 154.631 34.8192C161.62 34.8192 166.596 31.0141 166.596 25.6132C166.596 19.6855 161.722 18.2075 154.953 17.0912" fill="#CC0000"/>
<path d="M55.3538 6.3522C58.3378 6.34032 61.2078 7.49734 63.3491 9.57547V6.93396H70.4246V34.1903H63.6636V31.3286C62.5849 32.44 61.2928 33.322 59.8649 33.9218C58.437 34.5216 56.9026 34.8268 55.3538 34.8192C48.2076 34.8192 42.39 28.6871 42.39 20.6682C42.39 12.6494 48.2076 6.3522 55.3538 6.3522ZM56.3601 28.3019C60.2202 28.3019 63.3491 24.8664 63.3491 20.6289C63.3491 16.3915 60.2045 12.8538 56.3601 12.8538C52.5158 12.8538 49.3711 16.1871 49.3711 20.6289C49.3711 25.0708 52.5158 28.3019 56.3601 28.3019Z" fill="#CC0000"/>
<path d="M199.804 2.02829H202.013V2.75156H201.289V4.66194H200.503V2.75156H199.78L199.804 2.02829ZM205.307 2.02829V4.66194H204.52V3.24684L203.797 4.15093L203.153 3.24684V4.66194H202.366V2.02829H203.043L203.829 3.08961L204.615 2.02829H205.307Z" fill="#CC0000"/>
</g>
<defs>
<clipPath id="clip0">
<rect width="205" height="41.1242" fill="white" transform="translate(0.322388)"/>
</clipPath>
</defs>
</svg>