<?xml version="1.0" standalone="no"?>
<!DOCTYPE svg PUBLIC "-//W3C//DTD SVG 20010904//EN"
 "http://www.w3.org/TR/2001/REC-SVG-20010904/DTD/svg10.dtd">
<svg version="1.0" xmlns="http://www.w3.org/2000/svg"
 width="700.000000pt" height="700.000000pt" viewBox="0 0 700.000000 700.000000"
 preserveAspectRatio="xMidYMid meet">
<metadata>
Created by potrace 1.14, written by Peter Selinger 2001-2017
</metadata>
<g transform="translate(0.000000,700.000000) scale(0.100000,-0.100000)"
fill="#000000" stroke="none">
<path d="M3278 6995 c-1 -1 -42 -5 -89 -9 -47 -4 -95 -8 -105 -10 -10 -2 -41
-7 -69 -10 -415 -54 -866 -208 -1245 -424 -86 -49 -301 -187 -339 -218 -9 -7
-52 -41 -96 -75 -432 -336 -819 -832 -1029 -1319 -16 -36 -35 -78 -42 -95 -54
-120 -153 -432 -180 -570 -2 -11 -10 -54 -19 -95 -29 -147 -36 -200 -52 -370
-15 -165 -8 -592 12 -711 2 -13 6 -46 9 -74 9 -78 23 -156 51 -285 71 -332
241 -752 415 -1033 30 -48 60 -95 65 -105 24 -42 133 -191 208 -285 163 -202
344 -382 557 -552 92 -74 370 -265 386 -265 4 0 15 -6 23 -14 26 -22 259 -139
387 -194 275 -118 598 -209 883 -248 25 -3 57 -8 71 -10 162 -25 683 -25 841
1 13 2 47 7 74 10 71 10 87 13 115 18 14 3 43 8 65 12 22 4 67 14 100 22 33 8
71 17 85 20 32 5 175 48 270 80 187 63 423 169 584 262 49 28 91 51 93 51 9 0
267 179 343 239 157 122 333 287 460 430 36 41 70 79 76 85 65 68 263 353 352
508 47 80 182 351 182 364 0 3 8 24 19 47 53 118 147 417 177 562 17 81 54
301 59 350 4 33 9 71 11 85 9 47 11 525 4 605 -16 169 -22 220 -25 225 -2 3
-6 30 -10 60 -4 30 -22 123 -40 205 -269 1195 -1141 2163 -2300 2553 -168 57
-420 119 -555 137 -19 3 -46 7 -60 10 -13 2 -52 7 -86 11 -33 3 -74 8 -90 10
-33 5 -540 14 -546 9z"/>
</g>
</svg>
