<svg width="572" height="535" viewBox="0 0 572 535" fill="none" xmlns="http://www.w3.org/2000/svg">
<path d="M428.68 1.87182C432.131 4.78658 435.018 7.63011 435.854 12.2462C435.994 14.6229 436.004 16.9686 435.971 19.3492C435.976 20.7093 435.976 20.7093 435.981 22.0969C435.987 25.1302 435.965 28.1626 435.943 31.1958C435.942 33.3725 435.943 35.5492 435.945 37.7259C435.947 42.4109 435.936 47.0957 435.917 51.7807C435.887 59.1889 435.89 66.5968 435.898 74.005C435.913 92.4051 435.891 110.805 435.85 129.205C435.818 143.506 435.799 157.806 435.821 172.107C435.832 179.471 435.814 186.835 435.776 194.199C435.759 198.781 435.766 203.362 435.78 207.944C435.782 210.068 435.773 212.192 435.753 214.316C435.728 217.217 435.739 220.116 435.76 223.017C435.743 223.857 435.727 224.696 435.71 225.561C435.816 231.935 438.05 234.857 442.492 239.247C443.568 240.722 444.614 242.219 445.613 243.747C446.416 244.966 446.416 244.966 447.234 246.21C447.794 247.07 448.353 247.931 448.93 248.817C449.532 249.734 450.134 250.651 450.754 251.596C452.671 254.518 454.582 257.445 456.492 260.372C458.366 263.234 460.242 266.096 462.117 268.957C463.374 270.873 464.629 272.79 465.884 274.707C470.631 281.952 475.425 289.165 480.236 296.367C486.341 305.508 492.396 314.682 498.444 323.861C500.32 326.708 502.198 329.555 504.076 332.401C506.484 336.051 508.883 339.705 511.277 343.364C513.217 346.325 515.182 349.265 517.194 352.179C522.629 360.133 525.992 368.163 528.805 377.309C529.29 378.83 529.777 380.35 530.266 381.869C531.379 385.329 532.481 388.792 533.578 392.257C535.731 399.024 537.954 405.768 540.18 412.512C541.024 415.072 541.868 417.631 542.713 420.19C542.925 420.835 543.138 421.481 543.358 422.145C545.957 430.032 548.532 437.927 551.106 445.822C553.718 453.834 556.347 461.841 559.001 469.84C560.429 474.153 561.842 478.471 563.252 482.79C563.903 484.776 564.561 486.761 565.225 488.743C573.14 512.386 573.14 512.386 568.93 522.622C565.593 528.301 560.736 532.228 554.492 534.247C551.663 534.435 548.934 534.521 546.106 534.507C545.26 534.511 544.415 534.515 543.543 534.518C540.696 534.529 537.848 534.525 535.001 534.521C532.944 534.525 530.887 534.531 528.83 534.537C523.167 534.551 517.505 534.553 511.842 534.552C505.739 534.554 499.636 534.567 493.533 534.578C480.879 534.6 468.225 534.609 455.57 534.613C454.883 534.614 454.195 534.614 453.486 534.614C452.797 534.615 452.108 534.615 451.398 534.615C443.762 534.618 436.126 534.625 428.491 534.631C405.431 534.651 382.371 534.667 359.311 534.67C358.205 534.67 358.205 534.67 357.076 534.67C354.087 534.671 351.098 534.671 348.108 534.672C345.859 534.672 343.609 534.672 341.359 534.672C340.615 534.672 339.872 534.673 339.106 534.673C315.743 534.676 292.38 534.698 269.017 534.734C242.774 534.775 216.532 534.798 190.289 534.799C187.491 534.799 184.693 534.799 181.895 534.799C180.862 534.799 180.862 534.799 179.808 534.799C168.718 534.8 157.627 534.818 146.537 534.841C135.393 534.864 124.248 534.868 113.104 534.853C107.065 534.846 101.027 534.847 94.9889 534.87C89.4625 534.89 83.9367 534.888 78.4103 534.867C76.4096 534.863 74.4089 534.868 72.4083 534.883C69.6902 534.901 66.9738 534.888 64.2557 534.868C63.4776 534.88 62.6994 534.893 61.8977 534.906C55.367 534.801 50.643 532.287 45.9605 527.769C41.3173 522.508 39.8501 517.397 39.9883 510.516C40.935 504.374 43.7565 498.954 46.4526 493.414C47.5198 491.189 48.5286 488.945 49.5274 486.688C50.2025 485.187 50.8782 483.685 51.5547 482.184C51.8583 481.495 52.1618 480.805 52.4746 480.094C56.3164 471.782 60.8912 466.765 69.4922 463.247C73.9558 461.766 78.4734 460.514 83.0078 459.27C84.3346 458.9 85.6612 458.529 86.9876 458.158C89.7898 457.375 92.5934 456.596 95.3982 455.822C99.7609 454.618 104.12 453.401 108.479 452.182C120.787 448.743 133.104 445.337 145.445 442.016C147.117 441.564 148.788 441.111 150.46 440.657C153.381 439.866 156.306 439.091 159.235 438.328C169.264 435.623 176.031 432.657 182.68 424.497C183.137 423.94 183.594 423.384 184.065 422.81C188.313 417.591 192.368 412.219 196.427 406.852C202.075 399.407 207.971 392.162 214.023 385.042C215.68 383.071 215.68 383.071 217.648 380.071C224.733 371.728 241.646 369.258 251.758 366.177C253.605 365.609 255.452 365.04 257.299 364.471C262.127 362.984 266.958 361.504 271.789 360.026C279.534 357.655 287.276 355.275 295.017 352.893C297.706 352.067 300.396 351.245 303.086 350.423C304.746 349.913 306.405 349.404 308.063 348.895C308.801 348.67 309.539 348.446 310.299 348.215C321.734 344.694 328.546 341.061 335.492 331.122C336.65 329.493 337.807 327.864 338.965 326.235C339.845 324.989 339.845 324.989 340.743 323.718C343.447 319.898 346.187 316.103 348.93 312.309C349.463 311.571 349.996 310.832 350.545 310.071C355.075 303.801 359.664 297.576 364.259 291.355C368.221 285.986 372.151 280.596 376.055 275.184C376.585 274.449 377.115 273.714 377.661 272.957C380.393 269.166 383.12 265.372 385.844 261.575C402.874 237.865 402.874 237.865 407.492 233.247C407.806 231.04 407.806 231.04 407.771 228.451C407.787 226.932 407.787 226.932 407.805 225.383C407.808 223.71 407.808 223.71 407.811 222.004C407.821 220.833 407.831 219.663 407.841 218.457C407.867 215.242 407.884 212.027 407.897 208.813C407.913 205.455 407.939 202.097 407.965 198.739C408.012 192.378 408.048 186.018 408.082 179.657C408.12 172.416 408.169 165.176 408.22 157.935C408.323 143.039 408.412 128.143 408.492 113.247C407.453 113.253 406.414 113.26 405.344 113.267C395.545 113.328 385.746 113.373 375.946 113.402C370.909 113.418 365.871 113.439 360.833 113.473C355.971 113.506 351.108 113.524 346.245 113.531C344.391 113.537 342.537 113.548 340.683 113.564C338.083 113.586 335.484 113.589 332.884 113.587C332.12 113.598 331.356 113.609 330.569 113.62C325.78 113.592 322.47 112.952 318.492 110.247C314.663 105.8 313.989 102.57 313.975 96.7761C313.964 95.692 313.964 95.692 313.953 94.586C313.936 92.2121 313.947 89.8394 313.961 87.4656C313.958 85.807 313.954 84.1484 313.949 82.4899C313.943 79.0199 313.952 75.5503 313.971 72.0803C313.993 67.6416 313.98 63.2038 313.956 58.7651C313.942 55.342 313.947 51.9192 313.957 48.4961C313.96 46.8599 313.956 45.2237 313.947 43.5875C313.937 41.297 313.952 39.008 313.975 36.7175C313.978 35.4166 313.981 34.1156 313.984 32.7753C314.668 28.0274 316.428 24.8722 320.22 21.886C323.735 20.8971 327.221 20.9868 330.841 21.0198C332.1 21.0193 332.1 21.0193 333.384 21.0189C336.155 21.0203 338.925 21.0358 341.695 21.0515C343.618 21.0552 345.54 21.0581 347.463 21.0601C352.52 21.0677 357.576 21.0874 362.633 21.1095C367.794 21.13 372.956 21.1391 378.117 21.1492C388.242 21.1706 398.367 21.2047 408.492 21.2468C408.454 19.9033 408.454 19.9033 408.415 18.5327C408.396 17.3594 408.376 16.1861 408.355 14.9773C408.317 13.2316 408.317 13.2316 408.279 11.4507C408.489 8.29814 408.737 6.97408 410.68 4.55932C416.275 -0.0413823 421.944 -1.56206 428.68 1.87182Z" fill="black"/>
<path d="M125.289 116.481C126.237 116.52 127.185 116.559 128.162 116.598C130.166 116.683 132.17 116.77 134.174 116.861C137.217 116.996 140.261 117.11 143.305 117.223C145.258 117.308 147.211 117.394 149.164 117.481C150.064 117.513 150.965 117.544 151.892 117.576C164.982 118.228 173.36 123.587 182.32 132.825C192.537 144.218 201.402 156.958 210.492 169.247C211.006 169.934 211.519 170.621 212.048 171.329C215.492 176.014 215.492 176.014 215.492 178.247C223.92 179.945 232.334 181.433 240.867 182.493C241.656 182.592 242.444 182.691 243.256 182.793C246.49 183.196 249.723 183.594 252.959 183.974C255.368 184.258 257.774 184.562 260.18 184.868C260.898 184.947 261.615 185.027 262.355 185.108C270.052 186.116 276.518 189.167 281.492 195.247C285.677 201.257 286.488 207.038 285.492 214.247C283.734 220.886 280.396 225.693 274.492 229.247C262.059 235.223 245.977 230.671 232.854 228.883C230.947 228.626 229.039 228.376 227.13 228.133C207.907 225.685 191.784 221.621 178.832 206.009C177.658 204.465 176.568 202.86 175.492 201.247C172.456 213.023 169.78 224.854 167.242 236.747C166.875 238.457 166.508 240.166 166.141 241.876C165.255 245.999 164.373 250.123 163.492 254.247C164.321 254.36 164.321 254.36 165.166 254.475C211.733 260.855 211.733 260.855 223.805 276.497C229.878 284.697 232.104 294.949 234.289 304.751C234.528 305.796 234.766 306.841 235.012 307.918C235.509 310.103 236.003 312.288 236.494 314.475C237.248 317.833 238.012 321.19 238.777 324.546C239.261 326.676 239.744 328.807 240.227 330.938C240.455 331.943 240.683 332.948 240.918 333.984C241.229 335.372 241.229 335.372 241.546 336.788C241.729 337.603 241.913 338.418 242.102 339.258C242.492 341.247 242.492 341.247 242.492 343.247C241.792 343.458 241.093 343.669 240.372 343.886C237.137 344.869 233.909 345.87 230.68 346.872C229.579 347.203 228.479 347.534 227.346 347.876C216.946 351.127 207.84 355.097 200.305 363.122C199.83 363.619 199.355 364.117 198.865 364.63C197.729 365.824 196.608 367.033 195.492 368.247C193.083 365.838 192.857 364.385 192.072 361.094C191.812 360.02 191.552 358.945 191.284 357.838C190.872 356.091 190.872 356.091 190.453 354.309C190.167 353.118 189.882 351.927 189.587 350.7C188.984 348.179 188.384 345.657 187.787 343.135C186.871 339.261 185.944 335.391 185.016 331.52C184.432 329.075 183.848 326.63 183.266 324.184C182.988 323.02 182.709 321.855 182.423 320.655C182.169 319.581 181.915 318.506 181.654 317.399C181.429 316.45 181.204 315.501 180.972 314.524C180.492 312.247 180.492 312.247 180.492 310.247C179.857 310.161 179.222 310.076 178.568 309.987C175.668 309.596 172.767 309.202 169.867 308.809C168.369 308.607 168.369 308.607 166.84 308.401C165.867 308.269 164.893 308.137 163.891 308.001C163 307.88 162.11 307.76 161.193 307.636C158.284 307.217 155.39 306.734 152.492 306.247C149.104 319.24 146.274 332.328 143.508 345.466C143.043 347.662 142.578 349.859 142.112 352.056C140.9 357.783 139.691 363.51 138.483 369.238C137.245 375.105 136.003 380.971 134.762 386.837C132.335 398.306 129.913 409.776 127.492 421.247C114.365 425.092 101.235 428.925 88.0647 432.62C85.9703 433.208 83.8768 433.799 81.7832 434.389C80.4375 434.768 79.0918 435.146 77.7461 435.524C76.5635 435.857 75.3808 436.189 74.1624 436.532C71.4922 437.247 71.4922 437.247 70.4922 437.247C71.1077 430.833 72.1369 424.669 73.53 418.382C73.7351 417.439 73.9402 416.496 74.1515 415.524C74.8271 412.423 75.5092 409.323 76.1914 406.223C76.6692 404.037 77.1467 401.85 77.6237 399.663C78.8816 393.902 80.145 388.142 81.4095 382.383C82.6743 376.617 83.9335 370.85 85.1934 365.083C92.7262 330.623 92.7262 330.623 95.5376 318.105C95.8255 316.821 96.1135 315.538 96.4101 314.215C96.9153 311.97 97.4233 309.725 97.935 307.481C98.147 306.541 98.359 305.6 98.5774 304.631C98.7568 303.844 98.9361 303.057 99.1209 302.247C99.5835 300.094 99.5835 300.094 99.4922 297.247C98.332 296.81 98.332 296.81 97.1484 296.364C86.1189 292.023 76.4309 286.165 70.9805 275.208C62.626 255.53 67.7417 237.428 72.4922 217.372C73.3524 213.666 74.2074 209.959 75.0601 206.252C75.5887 203.961 76.1227 201.672 76.6626 199.384C76.9028 198.358 77.1431 197.332 77.3906 196.275C77.6038 195.373 77.817 194.472 78.0366 193.543C78.5895 191.147 78.5895 191.147 78.4922 188.247C68.585 195.076 64.6848 203.977 59.7554 214.586C57.3448 219.664 54.6785 224.606 52.0356 229.566C51.4244 230.713 51.4244 230.713 50.8008 231.884C50.4075 232.621 50.0141 233.359 49.6089 234.119C48.5731 236.093 47.5745 238.08 46.5898 240.079C42.5258 248.143 38.5513 254.169 29.9922 257.684C21.3515 259.073 15.2687 258.135 7.80469 253.622C2.58071 248.257 0.175303 243.325 0 235.751C0.140024 227.816 2.60774 222.038 6.17969 215.059C6.77023 213.86 7.35824 212.659 7.94385 211.457C9.16033 208.967 10.3909 206.486 11.6313 204.009C13.4869 200.284 15.2526 196.521 17.0039 192.747C17.5735 191.528 18.1436 190.31 18.7141 189.091C19.7855 186.802 20.852 184.511 21.9128 182.217C25.0989 175.526 28.7415 169.92 33.4922 164.247C34.3695 163.082 35.2449 161.916 36.1172 160.747C53.8764 140.595 98.1999 115.303 125.289 116.481Z" fill="black"/>
<path d="M176.18 17.5593C186.753 25.2752 193.911 36.384 196.492 49.2468C198.185 64.7292 195.332 78.8383 185.492 91.2468C176.627 100.972 165.091 107.683 151.832 108.462C137.265 108.934 124.587 105.666 113.305 96.1218C103.272 86.5773 97.6103 74.8107 97.0215 60.9353C96.8227 46.091 101.64 33.3898 111.805 22.4343C129.781 5.73588 155.894 4.55574 176.18 17.5593Z" fill="black"/>
</svg>
