<svg width="532" height="546" viewBox="0 0 532 546" fill="none" xmlns="http://www.w3.org/2000/svg">
<path d="M50.403 0.732589C51.7741 0.72885 53.1451 0.724247 54.5162 0.718858C58.2739 0.706648 62.0316 0.706887 65.7894 0.709247C69.8461 0.709656 73.9028 0.698611 77.9595 0.689132C85.9042 0.672532 93.8489 0.667023 101.794 0.665907C108.254 0.664956 114.714 0.660843 121.173 0.654506C139.499 0.636895 157.824 0.627667 176.149 0.629167C177.137 0.629247 178.124 0.629327 179.142 0.629409C180.131 0.629491 181.119 0.629573 182.138 0.629657C198.157 0.63047 214.176 0.611337 230.194 0.583132C246.652 0.554384 263.11 0.540593 279.568 0.54232C288.803 0.542983 298.039 0.537519 307.275 0.515964C315.14 0.497726 323.004 0.493426 330.869 0.506983C334.879 0.5135 338.888 0.513676 342.898 0.496276C346.575 0.480483 350.252 0.483472 353.929 0.500845C355.875 0.505338 357.822 0.490306 359.768 0.474365C372.74 0.575512 383.371 4.16971 393 13C402.533 23.7185 406.171 34.6952 406.12 48.8078C406.122 50.1202 406.122 50.1202 406.123 51.4591C406.125 54.3841 406.119 57.309 406.114 60.2339C406.113 62.3333 406.113 64.4327 406.114 66.532C406.114 72.2278 406.108 77.9235 406.101 83.6193C406.095 89.573 406.095 95.5268 406.093 101.481C406.09 112.753 406.082 124.026 406.072 135.299C406.061 148.133 406.055 160.967 406.05 173.801C406.04 200.201 406.022 226.6 406 253C405.117 253.052 404.234 253.104 403.324 253.157C399.996 253.354 396.669 253.557 393.342 253.762C391.912 253.849 390.482 253.935 389.051 254.018C351.345 256.227 316.807 270.255 289 296C288.056 296.861 287.113 297.722 286.141 298.609C266.837 317.021 253.664 340.463 245.813 365.812C245.574 366.57 245.336 367.327 245.091 368.107C241.167 381.35 239.49 394.534 239.609 408.302C239.625 410.5 239.609 412.697 239.59 414.895C239.568 428.635 241.644 441.926 245.75 455.062C246.007 455.896 246.264 456.729 246.528 457.587C250.597 470.406 256.339 482.064 263.082 493.672C264.478 496.094 265.77 498.495 267 501C238.036 501.07 209.072 501.123 180.107 501.155C177.427 501.158 174.746 501.162 172.066 501.165C171.4 501.166 170.733 501.166 170.047 501.167C159.283 501.18 148.52 501.204 137.756 501.231C126.697 501.26 115.639 501.276 104.581 501.282C98.3751 501.286 92.1696 501.295 85.9641 501.317C80.1152 501.338 74.2664 501.344 68.4174 501.339C66.2786 501.34 64.1398 501.346 62.001 501.358C44.4993 501.448 28.1598 501.108 14.4297 488.672C2.06207 475.692 0.697812 462.048 0.732585 444.946C0.728845 443.203 0.724244 441.46 0.718856 439.717C0.706647 434.939 0.706882 430.162 0.709243 425.384C0.709651 420.227 0.698607 415.069 0.689128 409.911C0.672529 399.812 0.66702 389.712 0.665904 379.612C0.664953 371.401 0.660839 363.19 0.654502 354.979C0.636893 331.691 0.627664 308.402 0.629165 285.113C0.629245 283.858 0.629323 282.603 0.629405 281.31C0.629487 280.054 0.629569 278.797 0.629653 277.502C0.630466 257.139 0.611327 236.776 0.583129 216.412C0.554392 195.494 0.540588 174.576 0.542315 153.658C0.542979 141.918 0.5375 130.178 0.51596 118.437C0.497737 108.442 0.493411 98.4459 0.50698 88.4501C0.513504 83.3528 0.513645 78.2557 0.496272 73.1584C0.480512 68.4862 0.483437 63.8144 0.500842 59.1423C0.503905 57.458 0.500302 55.7736 0.489119 54.0893C0.399283 39.5908 2.54103 26.567 12 15C23.5388 3.81887 34.7126 0.694237 50.403 0.732589ZM87 108C85.8429 111.626 85.6648 113.263 87.25 116.75C88.9737 119.211 88.9737 119.211 92 121C94.9619 121.201 97.8303 121.283 100.793 121.274C101.703 121.279 102.612 121.285 103.55 121.29C106.61 121.305 109.671 121.306 112.732 121.306C114.921 121.314 117.111 121.322 119.3 121.332C125.257 121.354 131.213 121.362 137.17 121.367C140.889 121.371 144.608 121.377 148.327 121.384C160.624 121.408 172.921 121.422 185.218 121.425C186.213 121.425 186.213 121.425 187.228 121.426C188.223 121.426 188.223 121.426 189.239 121.426C199.999 121.43 210.759 121.457 221.519 121.494C232.565 121.532 243.611 121.551 254.657 121.552C260.86 121.553 267.062 121.561 273.264 121.59C279.097 121.616 284.929 121.618 290.762 121.602C292.904 121.6 295.047 121.607 297.19 121.623C300.111 121.643 303.031 121.633 305.953 121.615C306.804 121.628 307.655 121.641 308.532 121.655C312.858 121.593 314.497 121.399 318.003 118.618C320.115 115.849 321 114.473 321 111C319.378 107.514 318.235 106.157 315 104C312.023 103.801 309.14 103.722 306.162 103.733C305.248 103.728 304.333 103.724 303.391 103.719C300.314 103.706 297.237 103.708 294.16 103.709C291.96 103.704 289.759 103.697 287.558 103.689C281.57 103.671 275.583 103.667 269.595 103.666C264.603 103.664 259.61 103.656 254.617 103.649C243.515 103.634 232.412 103.628 221.31 103.629C220.31 103.629 220.31 103.629 219.29 103.629C218.623 103.629 217.956 103.63 217.269 103.63C206.453 103.63 195.637 103.611 184.822 103.583C173.72 103.554 162.619 103.541 151.518 103.542C145.283 103.543 139.049 103.537 132.815 103.516C126.954 103.497 121.093 103.496 115.231 103.511C113.077 103.513 110.923 103.508 108.769 103.496C105.834 103.481 102.9 103.49 99.9647 103.506C99.1069 103.495 98.249 103.485 97.3651 103.474C92.5546 103.531 89.936 103.782 87 108ZM87 201C85.7633 204.633 85.6554 206.242 87.25 209.75C88.9737 212.211 88.9737 212.211 92 214C94.962 214.199 97.8303 214.278 100.793 214.267C102.158 214.274 102.158 214.274 103.55 214.281C106.61 214.294 109.671 214.292 112.732 214.291C114.921 214.297 117.111 214.303 119.3 214.311C125.257 214.329 131.213 214.333 137.17 214.335C142.138 214.336 147.105 214.344 152.073 214.351C163.122 214.366 174.17 214.372 185.218 214.371C185.881 214.371 186.544 214.371 187.228 214.371C187.891 214.371 188.555 214.37 189.239 214.37C199.999 214.37 210.759 214.389 221.519 214.417C232.565 214.446 243.611 214.459 254.657 214.458C260.86 214.457 267.062 214.463 273.264 214.484C279.097 214.503 284.929 214.504 290.762 214.489C292.904 214.487 295.047 214.492 297.19 214.504C300.111 214.519 303.032 214.51 305.953 214.494C306.804 214.505 307.655 214.515 308.532 214.526C312.54 214.479 314.527 214.296 318.003 212.118C320.375 209.603 321 208.456 321 205C319.456 201.064 318.552 199.368 315 197C312.038 196.801 309.17 196.722 306.207 196.733C305.297 196.728 304.388 196.724 303.45 196.719C300.39 196.706 297.329 196.708 294.268 196.709C292.079 196.704 289.889 196.697 287.7 196.689C281.743 196.671 275.787 196.667 269.83 196.665C264.862 196.664 259.895 196.656 254.927 196.649C243.878 196.634 232.83 196.628 221.782 196.629C221.119 196.629 220.456 196.629 219.772 196.629C219.109 196.629 218.445 196.63 217.761 196.63C207.001 196.63 196.241 196.611 185.481 196.583C174.435 196.554 163.389 196.541 152.343 196.542C146.14 196.543 139.938 196.537 133.736 196.516C127.903 196.497 122.071 196.496 116.238 196.511C114.096 196.513 111.953 196.508 109.81 196.496C106.889 196.481 103.968 196.49 101.047 196.506C100.196 196.495 99.3449 196.485 98.468 196.474C93.4104 196.534 90.6111 197.108 87 201ZM88.7058 292.384C86.9023 295.15 86 296.695 86 300C87.804 304.209 89.9587 305.979 94 308C96.83 308.446 96.83 308.446 99.8826 308.381C101.649 308.394 101.649 308.394 103.451 308.407C104.734 308.401 106.018 308.394 107.34 308.388C108.712 308.392 110.084 308.398 111.456 308.404C115.175 308.418 118.893 308.413 122.612 308.403C126.507 308.395 130.402 308.402 134.297 308.407C140.837 308.413 147.377 308.405 153.917 308.391C161.475 308.375 169.032 308.38 176.59 308.397C183.083 308.41 189.576 308.412 196.068 308.404C199.945 308.4 203.821 308.399 207.697 308.409C211.341 308.418 214.985 308.412 218.63 308.394C220.603 308.388 222.576 308.397 224.549 308.407C225.727 308.398 226.904 308.39 228.117 308.381C229.139 308.38 230.16 308.379 231.212 308.378C234.494 307.933 236.346 306.956 239 305C241.5 301.25 241.536 299.441 241 295C239.354 292.354 238.673 291.419 236 290C231.447 289.235 226.897 289.316 222.293 289.353C220.882 289.346 219.47 289.337 218.059 289.326C214.232 289.304 210.407 289.313 206.58 289.328C202.573 289.341 198.566 289.329 194.559 289.321C187.831 289.312 181.103 289.324 174.374 289.348C166.598 289.375 158.823 289.367 151.046 289.339C144.367 289.316 137.687 289.313 131.008 289.326C127.02 289.334 123.032 289.335 119.044 289.319C115.294 289.304 111.545 289.314 107.796 289.343C106.421 289.35 105.046 289.348 103.671 289.337C95.581 288.905 95.581 288.905 88.7058 292.384Z" fill="black"/>
<path d="M395.5 275.625C396.198 275.626 396.895 275.627 397.614 275.628C433.927 275.777 466.754 289.844 492.468 315.429C518 341.613 531.69 376.272 531.353 412.831C530.52 441.463 521.803 469.315 504 492C503.581 492.535 503.163 493.071 502.731 493.622C488.65 511.441 471.694 524.673 451 534C450.38 534.284 449.76 534.567 449.122 534.859C416.829 549.421 378.783 548.562 346.004 536.251C329.241 529.733 315.194 520.122 302 508C301.265 507.348 300.53 506.695 299.773 506.023C276.516 484.297 262.413 451.008 260.875 419.439C259.733 380.349 271.393 345.871 298 317C298.737 316.18 299.475 315.36 300.234 314.516C315.756 298.061 337.141 286.736 358.562 280.25C359.21 280.051 359.857 279.853 360.525 279.648C372.002 276.345 383.608 275.588 395.5 275.625ZM426.312 386.59C425.001 387.903 423.69 389.216 422.378 390.528C418.95 393.96 415.525 397.395 412.1 400.831C408.596 404.345 405.089 407.857 401.582 411.369C394.719 418.243 387.858 425.121 381 432C378.108 430.61 376.066 429.3 373.828 426.988C373.25 426.399 372.672 425.809 372.077 425.202C371.474 424.579 370.871 423.955 370.25 423.313C365.946 418.929 361.644 414.672 356.93 410.727C353.567 407.718 350.548 404.355 347.492 401.039C344.556 398.637 342.766 398.127 339 398C334.758 400.247 334.758 400.247 332 404C331.328 406.743 331.328 406.743 332 410C333.292 411.852 333.292 411.852 335.012 413.672C335.65 414.375 336.288 415.079 336.945 415.803C342.697 421.952 348.6 427.947 354.524 433.929C356.181 435.608 357.831 437.293 359.476 438.983C361.865 441.44 364.274 443.876 366.687 446.309C367.417 447.066 368.146 447.823 368.898 448.603C372.103 451.796 374.308 453.766 378.645 455.231C385.634 454.75 390.374 448.915 395.075 444.184C395.756 443.507 396.436 442.83 397.137 442.132C399.372 439.906 401.6 437.672 403.828 435.438C405.384 433.883 406.94 432.329 408.496 430.775C411.751 427.524 415.002 424.268 418.25 421.011C422.415 416.834 426.589 412.667 430.766 408.502C433.978 405.297 437.185 402.088 440.391 398.877C441.929 397.338 443.468 395.8 445.008 394.264C447.158 392.12 449.301 389.969 451.442 387.816C452.08 387.183 452.718 386.549 453.375 385.896C453.959 385.307 454.542 384.718 455.142 384.112C455.649 383.604 456.155 383.097 456.677 382.574C459.262 379.498 460.01 377.558 459.937 373.5C459.262 369.922 459.262 369.922 456.812 367.563C445.476 361.264 433.749 379.122 426.312 386.59Z" fill="black"/>
</svg>
