<svg width="400" height="442" viewBox="0 0 400 442" fill="none" xmlns="http://www.w3.org/2000/svg">
<path d="M274.594 112.326C296.865 131.479 312.939 157.541 316.715 187.086C319.245 221.82 311.539 253.006 289 280C288.406 280.746 287.811 281.493 287.199 282.262C279.181 292.003 267.73 301.308 256 306C256 320.52 256 335.04 256 350C219.04 350 182.08 350 144 350C144 335.48 144 320.96 144 306C142.35 305.34 140.7 304.68 139 304C121.249 293.159 106.861 278.359 97 260C96.2498 258.637 96.2498 258.637 95.4844 257.246C81.0334 229.84 78.7681 197.4 87.6494 167.838C97.3444 137.49 118.009 113.558 146.056 98.6465C187.359 77.6159 238.772 82.5376 274.594 112.326ZM185.562 161.813C184.888 161.978 184.214 162.143 183.519 162.313C177.746 163.735 177.746 163.735 173 167C172.379 170.578 172.532 174.071 172.687 177.688C172.71 178.676 172.733 179.664 172.756 180.682C172.815 183.123 172.897 185.561 173 188C177.002 186.426 180.909 184.697 184.816 182.902C191.129 180.294 198.687 179.648 205.062 182.25C208.511 185.364 208.934 187.187 209.312 191.875C209.168 197.425 206.965 201.224 203 205C203 205.66 203 206.32 203 207C202.422 207.255 201.845 207.51 201.25 207.773C195.496 210.91 190.324 216.607 187.613 222.578C186.249 227.964 185.46 235.921 188 241C194.27 241 200.54 241 207 241C206.845 238.525 206.845 238.525 206.687 236C206.758 229.081 208.522 225.429 213.432 220.588C215.65 218.481 217.894 216.409 220.19 214.387C227.835 207.65 232.954 200.785 234.352 190.383C234.623 182.474 232.818 175.87 227.812 169.688C220.396 161.883 210.819 160.05 200.375 159.625C195.249 159.711 190.519 160.598 185.562 161.813ZM187.5 255.25C185.636 258.668 185.068 261.102 185 265C186.247 268.74 187.647 270.665 190.5 273.375C195.412 275.656 199.679 276.04 205 275C209.029 272.749 211.535 270.395 213 266C213.455 262.616 213.608 260.115 211.941 257.059C208.947 253.172 206.034 250.872 201.152 250.02C195.798 249.971 191.447 251.698 187.5 255.25Z" fill="black"/>
<path d="M157.937 395.612C158.946 395.607 159.955 395.601 160.994 395.596C164.329 395.583 167.664 395.591 171 395.602C173.316 395.6 175.633 395.597 177.949 395.593C182.805 395.588 187.66 395.595 192.516 395.609C198.744 395.626 204.971 395.616 211.199 395.598C215.982 395.587 220.766 395.591 225.549 395.599C227.846 395.601 230.142 395.598 232.439 395.591C235.647 395.584 238.854 395.595 242.062 395.612C243.014 395.606 243.966 395.6 244.947 395.593C251.301 395.655 251.301 395.655 254.59 397.278C256.546 399.666 256.485 401.957 256.531 404.965C255.716 408.087 254.617 409.073 252 411C248.694 411.611 245.417 411.546 242.062 411.518C241.054 411.525 240.045 411.532 239.006 411.539C235.671 411.556 232.336 411.545 229 411.531C226.684 411.534 224.367 411.538 222.051 411.543C217.195 411.549 212.34 411.54 207.484 411.522C201.256 411.499 195.029 411.512 188.801 411.536C184.018 411.55 179.234 411.546 174.451 411.535C172.154 411.533 169.858 411.536 167.561 411.545C164.353 411.555 161.146 411.54 157.937 411.518C156.986 411.526 156.034 411.534 155.053 411.542C148.624 411.459 148.624 411.459 145.412 409.095C142.989 405.501 143.458 403.266 144 399C147.518 394.705 152.863 395.579 157.937 395.612Z" fill="black"/>
<path d="M157.937 365.612C158.946 365.607 159.955 365.601 160.994 365.596C164.329 365.583 167.664 365.591 171 365.602C173.316 365.6 175.633 365.597 177.949 365.593C182.805 365.588 187.66 365.595 192.516 365.609C198.744 365.626 204.971 365.616 211.199 365.598C215.982 365.587 220.766 365.591 225.549 365.599C227.846 365.601 230.142 365.598 232.439 365.591C235.647 365.584 238.854 365.595 242.062 365.612C243.014 365.606 243.966 365.6 244.947 365.593C251.301 365.655 251.301 365.655 254.59 367.278C256.546 369.666 256.485 371.957 256.531 374.965C255.716 378.087 254.617 379.073 252 381C248.694 381.611 245.417 381.546 242.062 381.518C241.054 381.525 240.045 381.532 239.006 381.539C235.671 381.556 232.336 381.545 229 381.531C226.684 381.534 224.367 381.538 222.051 381.543C217.195 381.549 212.34 381.54 207.484 381.522C201.256 381.499 195.029 381.512 188.801 381.536C184.018 381.55 179.234 381.546 174.451 381.535C172.154 381.533 169.858 381.536 167.561 381.545C164.353 381.555 161.146 381.54 157.937 381.518C156.986 381.526 156.034 381.534 155.053 381.542C148.624 381.459 148.624 381.459 145.412 379.095C142.989 375.501 143.458 373.266 144 369C147.518 364.705 152.863 365.579 157.937 365.612Z" fill="black"/>
<path d="M200 0.5C200.66 0.489687 201.32 0.479375 202 0.46875C205.121 1.2977 206.08 2.36381 208 5C208.625 8.49212 208.584 11.956 208.566 15.4961C208.576 17.0346 208.576 17.0346 208.585 18.6043C208.592 20.7721 208.589 22.9399 208.576 25.1077C208.563 28.4224 208.597 31.7343 208.635 35.0488C208.636 37.1563 208.634 39.2637 208.629 41.3711C208.642 42.3608 208.655 43.3505 208.669 44.3702C208.606 49.0595 208.537 51.2866 205.648 55.1252C203 57 203 57 200 57.625C195.812 56.7525 194.575 55.4219 192 52C191.269 48.4564 191.323 44.9788 191.371 41.3711C191.369 40.3444 191.366 39.3178 191.364 38.26C191.365 36.094 191.378 33.9279 191.403 31.762C191.437 28.4453 191.424 25.1312 191.404 21.8145C191.411 19.7083 191.421 17.6022 191.434 15.4961C191.429 14.5044 191.424 13.5126 191.419 12.4908C191.536 5.63708 191.536 5.63708 193.91 2.3772C196.166 0.890578 197.321 0.458138 200 0.5Z" fill="black"/>
<path d="M311 299C313.784 300.975 316.073 303.349 318.43 305.809C319.105 306.491 319.781 307.172 320.478 307.875C322.625 310.049 324.749 312.243 326.875 314.437C328.327 315.911 329.78 317.383 331.234 318.854C333.881 321.543 336.526 324.233 339.152 326.943C339.679 327.486 340.207 328.03 340.75 328.589C342.65 330.734 342.998 331.985 343.312 334.875C343 338 343 338 341.312 340.312C338.664 342.245 337.28 342.922 334 343C329.565 341.429 327.231 339.324 324.379 335.641C322.898 333.878 321.324 332.481 319.562 331C315.387 327.442 311.506 323.623 307.625 319.75C307.006 319.135 306.386 318.52 305.748 317.887C305.164 317.3 304.579 316.714 303.977 316.109C303.189 315.32 303.189 315.32 302.385 314.515C299.264 311.102 298.489 308.564 298.625 303.945C299 302 299 302 301.062 299.437C305.015 297.503 306.755 297.86 311 299Z" fill="black"/>
<path d="M98 299C99.9375 300.062 99.9375 300.062 101 302C101.711 305.378 101.932 306.786 101 310C98.3909 313.731 95.2464 316.822 92 320C91.2111 320.812 90.4222 321.624 89.6094 322.461C86.4667 325.678 83.3276 328.815 79.8125 331.625C77.4764 333.598 75.9146 335.314 74.0625 337.687C71.1103 341.21 68.6791 342.499 64 343C58.4773 340.955 58.4773 340.955 57 338C56.5 335.375 56.5 335.375 57 332C61.9374 324.898 68.9824 318.864 75.0994 312.77C76.8298 311.045 78.5547 309.315 80.2793 307.584C81.3799 306.484 82.4808 305.384 83.582 304.285C84.0966 303.769 84.6112 303.252 85.1413 302.72C89.7651 298.126 91.5071 297.633 98 299Z" fill="black"/>
<path d="M66.824 56.5135C71.1291 57.4761 73.7869 60.6508 76.7812 63.7188C77.4802 64.4101 78.1792 65.1014 78.8993 65.8137C80.3678 67.2768 81.8264 68.75 83.2754 70.2325C85.4934 72.4933 87.7508 74.7082 90.0156 76.9219C91.4401 78.3517 92.862 79.7839 94.2812 81.2188C94.9561 81.8775 95.631 82.5362 96.3263 83.2148C99.4457 86.4621 101.41 88.7048 101.549 93.3262C101 97.0001 101 97.0001 98.9375 99.5626C96 101 96 101 92.75 101.313C87.9063 99.6173 85.4434 96.8624 82.0156 93.129C79.9934 90.8347 79.9934 90.8347 77 89.0001C77 88.3401 77 87.6801 77 87.0001C76.4098 86.7351 75.8195 86.4701 75.2114 86.1971C72.9314 84.9629 71.4376 83.6817 69.6172 81.8477C69.0075 81.2361 68.3977 80.6244 67.7695 79.9942C67.1443 79.3568 66.5191 78.7193 65.875 78.0626C65.2421 77.429 64.6091 76.7954 63.957 76.1426C57.1681 69.2889 57.1681 69.2889 56.625 65.1251C57.396 58.7005 60.3805 56.3156 66.824 56.5135Z" fill="black"/>
<path d="M339 57C341.562 59.0625 341.562 59.0625 343 62C343.269 66.7531 341.994 69.3649 339 72.875C337.684 74.2665 336.349 75.6406 335 77C334.279 77.7464 333.559 78.4927 332.816 79.2617C328.679 83.485 324.412 87.4751 319.902 91.2969C317.941 93.0528 316.211 94.9315 314.437 96.875C311.942 99.3932 310.902 100.032 307.375 101.187C304 101 304 101 301.062 99.5625C298.736 96.6726 298.406 94.8504 298.516 91.1738C299.475 86.8696 302.652 84.2117 305.719 81.2187C306.41 80.5198 307.101 79.8208 307.814 79.1007C309.277 77.6321 310.75 76.1736 312.232 74.7246C314.493 72.5066 316.708 70.2492 318.922 67.9844C320.352 66.5599 321.784 65.138 323.219 63.7187C323.877 63.0439 324.536 62.369 325.215 61.6737C329.852 57.2191 332.56 56.0379 339 57Z" fill="black"/>
<path d="M351.797 191.596C353.219 191.577 353.219 191.577 354.669 191.557C355.686 191.56 356.702 191.563 357.75 191.566C358.8 191.561 359.851 191.556 360.933 191.551C363.152 191.544 365.371 191.545 367.59 191.554C370.988 191.562 374.384 191.534 377.781 191.502C379.937 191.5 382.094 191.501 384.25 191.504C385.267 191.493 386.283 191.481 387.331 191.47C394.328 191.539 394.328 191.539 397.641 193.812C399.652 197.05 399.533 199.272 399 203C397.641 205.186 397.641 205.186 395 207C391.42 207.607 387.874 207.56 384.25 207.531C382.675 207.537 382.675 207.537 381.067 207.543C378.848 207.546 376.629 207.538 374.41 207.521C371.012 207.5 367.617 207.521 364.219 207.547C362.062 207.544 359.906 207.539 357.75 207.531C356.733 207.539 355.717 207.547 354.669 207.556C347.64 207.462 347.64 207.462 344.361 205.094C342.013 201.482 342.461 199.247 343 195C345.81 192.207 347.897 191.621 351.797 191.596Z" fill="black"/>
<path d="M15.75 191.504C17.3254 191.502 17.3254 191.502 18.9326 191.499C21.1517 191.501 23.3708 191.513 25.5899 191.533C28.9875 191.562 32.3836 191.554 35.7813 191.541C37.9375 191.547 40.0938 191.556 42.25 191.566C43.2668 191.563 44.2835 191.561 45.3311 191.557C46.2788 191.57 47.2266 191.583 48.2031 191.596C49.0349 191.601 49.8667 191.607 50.7236 191.612C53.5808 192.099 54.9506 192.963 57 195C57.8499 201.693 57.8499 201.693 55.6387 205.094C51.4688 208.106 47.268 207.571 42.25 207.531C40.6746 207.537 40.6746 207.537 39.0674 207.543C36.8483 207.546 34.6292 207.538 32.4102 207.521C29.0123 207.5 25.6166 207.521 22.2188 207.547C20.0625 207.544 17.9062 207.539 15.75 207.531C14.7333 207.539 13.7165 207.547 12.669 207.556C5.67342 207.463 5.67342 207.463 2.35938 205.186C0.346718 201.95 0.467582 199.727 1.00001 196C4.44059 190.463 9.91768 191.439 15.75 191.504Z" fill="black"/>
<path d="M189.562 425.469C190.805 425.463 190.805 425.463 192.073 425.457C193.821 425.454 195.569 425.462 197.317 425.479C199.991 425.5 202.662 425.479 205.336 425.453C207.036 425.456 208.737 425.461 210.438 425.469C211.635 425.457 211.635 425.457 212.856 425.444C216.421 425.504 218.579 425.695 221.504 427.814C223.702 431.026 223.542 433.203 223 437C221.504 439.186 221.504 439.186 219 441C216.019 441.398 213.416 441.561 210.438 441.531C209.195 441.537 209.195 441.537 207.927 441.543C206.179 441.546 204.431 441.538 202.683 441.521C200.009 441.5 197.338 441.521 194.664 441.547C192.964 441.544 191.263 441.539 189.562 441.531C188.365 441.543 188.365 441.543 187.144 441.556C183.579 441.496 181.421 441.305 178.496 439.186C176.298 435.974 176.458 433.797 177 430C180.273 425.218 184.211 425.414 189.562 425.469Z" fill="black"/>
</svg>
