<svg width="572" height="572" viewBox="0 0 572 572" fill="none" xmlns="http://www.w3.org/2000/svg">
<path d="M332.625 79.875C333.845 80.2734 335.066 80.6718 336.323 81.0823C344.977 84.0282 352.933 87.7376 361 92C363.842 111.079 363.842 111.079 359.314 118.919C354.909 124.498 349.37 130.678 343 134C339.699 133.724 336.901 132.665 333.875 131.363C332.708 130.872 332.708 130.872 331.517 130.372C330.271 129.847 330.271 129.847 329 129.312C313.165 122.835 296.944 118.384 280 116C278.703 115.817 277.406 115.634 276.07 115.445C246.15 112.282 215.481 115.478 187 125C186.278 125.24 185.556 125.48 184.812 125.727C174.421 129.243 164.665 133.832 155 139C154.394 139.322 153.788 139.645 153.164 139.977C106.59 164.993 71.8613 208.724 56.0728 258.95C55.2148 261.853 54.4053 264.763 53.625 267.687C53.3986 268.527 53.1721 269.367 52.9388 270.233C48.8835 286.408 47.4407 302.62 47.5625 319.25C47.5656 320.139 47.5686 321.029 47.5717 321.945C47.644 336.293 48.6351 350.008 52 364C52.2037 364.901 52.4074 365.801 52.6172 366.729C60.3859 400.603 77.0609 431.095 100 457C100.795 457.918 101.591 458.836 102.41 459.781C106.964 464.968 111.701 469.588 117 474C117.837 474.736 118.673 475.472 119.535 476.23C160.947 512.06 214.927 528.373 269.194 524.789C308.114 521.527 346.199 507.116 377 483C377.56 482.565 378.12 482.131 378.697 481.683C421.11 448.375 449.225 398.798 455.699 345.172C459.559 304.471 452.743 267.559 437 230C450.708 212.463 450.708 212.463 459.255 210.1C466.219 209.348 473.099 209.906 480 211C490.563 231.277 497.006 253.561 501 276C501.162 276.858 501.325 277.716 501.492 278.6C506.433 305.463 505.868 335.183 501 362C500.767 363.356 500.767 363.356 500.528 364.739C493.555 404.202 476.817 441.568 452 473C451.055 474.234 451.055 474.234 450.09 475.492C444.475 482.71 438.304 489.386 432 496C431.526 496.497 431.053 496.994 430.564 497.506C424.112 504.228 417.326 510.254 410 516C409.062 516.767 408.123 517.534 407.156 518.324C397.369 526.157 386.779 532.627 376 539C375.338 539.395 374.676 539.789 373.993 540.196C361.998 547.255 348.977 552.08 336 557C335.289 557.275 334.578 557.549 333.845 557.832C316.606 564.426 297.36 568.347 279 570C278.061 570.085 277.123 570.169 276.155 570.257C233.273 573.873 190.432 567.395 151 550C150.204 549.652 149.408 549.304 148.588 548.946C112.289 532.916 78.031 506.719 54 475C53.5171 474.366 53.0342 473.733 52.5367 473.08C44.0689 461.901 36.6699 450.334 30 438C29.6304 437.317 29.2608 436.635 28.8799 435.931C17.4095 414.476 9.55424 391.378 4.68753 367.562C4.54025 366.844 4.39298 366.125 4.24124 365.385C1.33065 350.075 0.625317 334.923 0.687529 319.375C0.689684 318.404 0.691839 317.434 0.69406 316.434C0.745091 302.107 1.08793 288.076 4.00003 274C4.19871 273.022 4.39738 272.044 4.60208 271.037C14.7743 222.424 36.7421 179.969 71 144C71.5703 143.401 72.1405 142.802 72.7281 142.185C81.2599 133.291 90.0825 125.311 100 118C100.544 117.59 101.088 117.179 101.649 116.757C167.548 67.0815 254.565 54.203 332.625 79.875Z" fill="black"/>
<path d="M493.59 6.2695C496.863 10.2867 497.247 14.3017 497.227 19.3508C497.227 20.6117 497.227 21.8727 497.227 23.1718C497.216 24.5377 497.206 25.9036 497.195 27.2695C497.192 28.6748 497.189 30.0802 497.187 31.4855C497.179 35.173 497.159 38.8603 497.137 42.5477C497.117 46.315 497.108 50.0823 497.098 53.8496C497.076 61.2331 497.042 68.6165 497 76C497.788 75.9911 498.577 75.9822 499.389 75.9731C506.834 75.8928 514.278 75.8319 521.723 75.7927C525.55 75.7719 529.377 75.7436 533.204 75.6982C536.899 75.6546 540.595 75.6308 544.291 75.6205C545.698 75.6131 547.106 75.5987 548.513 75.577C550.49 75.5479 552.467 75.5463 554.444 75.5459C555.567 75.537 556.691 75.5281 557.849 75.519C562.837 76.2804 565.921 78.8922 569.375 82.4375C571.826 87.812 572.23 93.2202 571 99C566.374 107.019 558.875 113.434 552.375 119.926C551.142 121.162 549.91 122.399 548.677 123.636C546.105 126.216 543.529 128.791 540.951 131.364C537.654 134.656 534.369 137.958 531.086 141.264C528.549 143.816 526.004 146.361 523.458 148.905C522.243 150.119 521.031 151.337 519.822 152.556C518.131 154.26 516.43 155.954 514.727 157.646C514.234 158.146 513.741 158.646 513.234 159.162C510.025 162.323 507.32 164.66 503 166C499.984 165.839 497.079 165.4 494.098 164.917C471.616 161.297 446.555 159.712 427.282 173.612C409.007 187.538 393.414 205.054 378.034 222.017C371.144 229.6 364.041 236.97 356.926 244.342C346.463 255.2 336.059 266.122 325.892 277.259C324.8 278.452 323.703 279.64 322.601 280.823C321.102 282.435 319.623 284.063 318.15 285.698C317.319 286.606 316.488 287.515 315.632 288.451C313.73 290.864 313.73 290.864 314.18 293.613C314.45 294.401 314.721 295.188 315 296C315.321 297.154 315.642 298.307 315.973 299.496C316.15 300.13 316.328 300.764 316.511 301.416C321.231 318.726 319.371 335.997 311 352C301.007 368.094 287.23 378.753 269 384C251.372 388.011 232.23 385.253 216.723 376.129C211.574 372.755 207.284 368.382 203 364C202.111 363.159 202.111 363.159 201.203 362.301C189.745 350.566 185.461 332.717 185.58 316.875C186.175 298.879 193.176 283.672 206 271C206.687 270.291 207.374 269.582 208.082 268.852C221.267 256.082 237.682 252.541 255.473 252.567C263.268 252.74 269.768 253.979 277 257C277.99 257.33 278.98 257.66 280 258C280.822 257.176 281.643 256.352 282.49 255.503C290.255 247.718 298.022 239.936 305.793 232.156C309.787 228.156 313.78 224.156 317.771 220.154C321.627 216.287 325.485 212.423 329.345 208.56C330.813 207.09 332.28 205.62 333.746 204.148C335.809 202.078 337.875 200.011 339.941 197.945C340.539 197.344 341.137 196.742 341.753 196.123C347.661 190.229 353.89 184.782 360.482 179.663C367.339 174.23 373.961 168.568 380.437 162.687C381.312 161.894 381.312 161.894 382.203 161.085C397.241 147.279 407.273 134.95 408.425 114.035C408.889 101.961 408.061 89.6608 406.444 77.6918C405.284 68.0553 405.284 68.0553 408.149 63.9665C409.393 62.6065 410.684 61.2895 412 60C413.326 58.6062 413.326 58.6062 414.679 57.1842C417.953 53.7601 421.304 50.4171 424.66 47.0742C425.895 45.8376 427.13 44.6006 428.365 43.3634C430.941 40.7842 433.521 38.2086 436.104 35.6355C439.408 32.3426 442.703 29.0409 445.996 25.7363C448.539 23.1857 451.087 20.6398 453.637 18.0953C454.854 16.8795 456.07 15.6623 457.284 14.4436C458.98 12.7422 460.683 11.0475 462.387 9.35421C462.883 8.85393 463.379 8.35364 463.891 7.83819C473.1 -1.26017 483.705 -2.44713 493.59 6.2695Z" fill="black"/>
<path d="M306 169C299.633 182.839 280.741 202.845 266.813 208.96C258.724 211.331 250.363 209.793 242.214 208.401C237.42 207.803 233.223 208.491 228.562 209.625C227.438 209.896 227.438 209.896 226.29 210.173C209.42 214.587 193.105 222.461 180 234C179.193 234.664 178.386 235.328 177.555 236.012C158.512 252.159 144.077 277.573 141.199 302.54C139.85 319.209 139.85 335.981 145 352C145.214 352.683 145.429 353.366 145.649 354.07C154.657 382.031 174.228 405.261 200.137 419.117C224.851 431.581 255.171 435.965 282 428C283.196 427.671 284.392 427.343 285.625 427.004C313.422 418.636 337.151 399.463 351.223 374.082C357.268 362.704 361.552 350.878 363.812 338.188C364.035 336.998 364.035 336.998 364.261 335.784C365.011 330.952 364.941 327.064 363.914 322.273C362.468 314.136 361.688 306.805 366.569 299.724C376.286 287.544 388.46 275.299 401 266C401.66 266 402.32 266 403 266C413.397 293.738 416.27 326.043 409 355C408.834 355.718 408.667 356.436 408.496 357.175C400.481 391.5 380.006 423.588 352 445C351.101 445.726 350.203 446.451 349.277 447.199C316.248 473.232 273.141 483.044 231.761 478.228C189.945 472.489 151.349 450.309 125.734 416.703C107.324 392.044 93.9941 361.225 93.7968 330.074C93.7898 329.333 93.7828 328.593 93.7756 327.83C93.7582 325.449 93.7517 323.068 93.75 320.688C93.7493 319.876 93.7486 319.064 93.7479 318.227C93.7634 306.533 94.1461 295.392 97 284C97.1663 283.284 97.3325 282.567 97.5039 281.829C104.893 250.177 123.4 218.364 149 198C149.538 197.571 150.077 197.142 150.631 196.7C195.656 161.128 251.405 150.88 306 169Z" fill="black"/>
</svg>
