<svg xmlns="http://www.w3.org/2000/svg" width="1440" height="400" viewBox="0 0 1440 400"><rect width="100%" height="100%" fill="#EEE"/><path fill="#31343C" d="M348.92 245.465h21.97v15.63h-67.6v-15.63h24.76v-71.24q0-4.22.25-8.7l-17.57 14.7q-1.52 1.19-3 1.48-1.48.3-2.79.04-1.31-.25-2.33-.88-1.01-.64-1.52-1.4l-6.59-9.04 37.27-31.69h17.15v106.73Zm55.52-30.42h37.18v-39.97q0-5.66.76-12.51l-37.94 52.48Zm55.34 0h15.38v12.08q0 1.69-1.09 2.92-1.1 1.22-3.13 1.22h-11.16v29.83h-18.16v-29.83h-51.55q-2.11 0-3.72-1.31-1.6-1.31-2.02-3.25l-2.2-10.56 57.88-77.32h19.77v76.22Zm42.68 0h37.18v-39.97q0-5.66.76-12.51l-37.94 52.48Zm55.34 0h15.38v12.08q0 1.69-1.09 2.92-1.1 1.22-3.13 1.22H557.8v29.83h-18.16v-29.83h-51.55q-2.11 0-3.72-1.31-1.6-1.31-2.02-3.25l-2.2-10.56 57.88-77.32h19.77v76.22Zm113.49-15.04q0 15.97-3.42 27.75-3.43 11.79-9.47 19.48-6.04 7.69-14.28 11.45-8.24 3.76-17.79 3.76-9.54 0-17.7-3.76-8.15-3.76-14.15-11.45-6-7.69-9.38-19.48-3.38-11.78-3.38-27.75 0-16.06 3.38-27.8 3.38-11.75 9.38-19.44 6-7.69 14.15-11.45 8.16-3.76 17.7-3.76 9.55 0 17.79 3.76 8.24 3.76 14.28 11.45 6.04 7.69 9.47 19.44 3.42 11.74 3.42 27.8Zm-21.55 0q0-13.27-1.94-21.97-1.95-8.71-5.2-13.86-3.25-5.16-7.48-7.23-4.22-2.07-8.79-2.07-4.47 0-8.66 2.07-4.18 2.07-7.39 7.23-3.21 5.15-5.11 13.86-1.9 8.7-1.9 21.97 0 13.26 1.9 21.97 1.9 8.7 5.11 13.85 3.21 5.16 7.39 7.23 4.19 2.07 8.66 2.07 4.57 0 8.79-2.07 4.23-2.07 7.48-7.23 3.25-5.15 5.2-13.85 1.94-8.71 1.94-21.97Zm155.73 33.12-11.07 10.9-28.64-28.64-28.9 28.81-11.07-10.9 28.9-28.98-27.55-27.55 10.99-10.99 27.54 27.55 27.38-27.38 11.16 10.99-27.47 27.46 28.73 28.73Zm73.18-18.08h37.18v-39.97q0-5.66.76-12.51l-37.94 52.48Zm55.35 0h15.38v12.08q0 1.69-1.1 2.92-1.1 1.22-3.13 1.22H934v29.83h-18.17v-29.83h-51.54q-2.12 0-3.72-1.31-1.61-1.31-2.03-3.25l-2.2-10.56 57.89-77.32H934v76.22Zm113.48-15.04q0 15.97-3.42 27.75-3.42 11.79-9.46 19.48-6.05 7.69-14.28 11.45-8.24 3.76-17.79 3.76-9.55 0-17.7-3.76-8.16-3.76-14.16-11.45-6-7.69-9.38-19.48-3.38-11.78-3.38-27.75 0-16.06 3.38-27.8 3.38-11.75 9.38-19.44 6-7.69 14.16-11.45 8.15-3.76 17.7-3.76 9.55 0 17.79 3.76 8.23 3.76 14.28 11.45 6.04 7.69 9.46 19.44 3.42 11.74 3.42 27.8Zm-21.55 0q0-13.27-1.94-21.97-1.94-8.71-5.2-13.86-3.25-5.16-7.47-7.23-4.23-2.07-8.79-2.07-4.48 0-8.66 2.07-4.19 2.07-7.4 7.23-3.21 5.15-5.11 13.86-1.9 8.7-1.9 21.97 0 13.26 1.9 21.97 1.9 8.7 5.11 13.85 3.21 5.16 7.4 7.23 4.18 2.07 8.66 2.07 4.56 0 8.79-2.07 4.22-2.07 7.47-7.23 3.26-5.15 5.2-13.85 1.94-8.71 1.94-21.97Zm119.57 0q0 15.97-3.42 27.75-3.42 11.79-9.46 19.48-6.05 7.69-14.28 11.45-8.24 3.76-17.79 3.76-9.55 0-17.7-3.76-8.16-3.76-14.16-11.45-6-7.69-9.38-19.48-3.38-11.78-3.38-27.75 0-16.06 3.38-27.8 3.38-11.75 9.38-19.44 6-7.69 14.16-11.45 8.15-3.76 17.7-3.76 9.55 0 17.79 3.76 8.23 3.76 14.28 11.45 6.04 7.69 9.46 19.44 3.42 11.74 3.42 27.8Zm-21.55 0q0-13.27-1.94-21.97-1.94-8.71-5.2-13.86-3.25-5.16-7.47-7.23-4.23-2.07-8.79-2.07-4.48 0-8.66 2.07-4.19 2.07-7.4 7.23-3.21 5.15-5.11 13.86-1.9 8.7-1.9 21.97 0 13.26 1.9 21.97 1.9 8.7 5.11 13.85 3.21 5.16 7.4 7.23 4.18 2.07 8.66 2.07 4.56 0 8.79-2.07 4.22-2.07 7.47-7.23 3.26-5.15 5.2-13.85 1.94-8.71 1.94-21.97Z"/></svg>