<svg height="512" viewBox="0 0 48 48" width="512" xmlns="http://www.w3.org/2000/svg"><g id="Discover"><path d="m24 0a24 24 0 1 0 24 24 24 24 0 0 0 -24-24zm0 46a22 22 0 1 1 22-22 22 22 0 0 1 -22 22z"/><path d="m24 4a20 20 0 1 0 20 20 20 20 0 0 0 -20-20zm1 38v-2a1 1 0 0 0 -2 0v2a18 18 0 0 1 -16.95-17h1.95a1 1 0 0 0 0-2h-1.95a18 18 0 0 1 16.95-16.95v1.95a1 1 0 0 0 2 0v-1.95a18 18 0 0 1 17 16.95h-2a1 1 0 0 0 0 2h2a18 18 0 0 1 -17 17z"/><path d="m32 14.62c-12.29 6.15-11.55 5.68-11.76 6.1l-5.62 11.28a1 1 0 0 0 1.38 1.38c12.29-6.15 11.55-5.68 11.76-6.1l5.62-11.28a1 1 0 0 0 -1.38-1.38zm-6 11.46-8.33 4.17 4.17-8.33 8.33-4.17z"/><path d="m24 25a1 1 0 0 0 1-1 1 1 0 1 0 -1 1z"/></g></svg>