<svg id="Capa_1" enable-background="new 0 0 511.091 511.091" height="512" viewBox="0 0 511.091 511.091" width="512" xmlns="http://www.w3.org/2000/svg"><g><g><path d="m490.356 381.085c-34.883 14.066-62.453 29.257-100.712 33.196-21.38 2.251-42.76-.563-64.703 4.501-15.191 3.376-28.132 10.128-41.073 16.316-1.688-32.07-3.938-64.703-6.189-96.774 3.376 3.376 8.44 3.938 13.503 0 11.815-9.565 22.505-19.13 33.196-29.257 3.376 6.752 6.752 12.941 10.127 19.692 1.688 3.938 8.44 5.064 11.253 1.688 3.938-5.064 8.44-10.69 12.378-15.754 3.938 7.314 9.002 15.191 15.754 18.567 3.376 1.688 6.189 1.125 9.002-1.125 6.752-5.064 11.815-16.316 15.754-25.881 10.127 12.378 22.505 27.007 36.009 32.07 10.69 3.938 17.442-9.002 13.503-17.442-3.376-7.877-12.378-14.066-18.567-20.255-8.44-9.002-16.879-17.442-24.756-27.007-.563-1.125-1.688-1.688-2.251-2.813 3.376-2.251 6.752-4.501 10.127-6.752 3.376 6.752 9.002 12.378 13.503 16.316 6.189 5.064 14.066 7.314 21.38 1.688 4.501-3.376 7.877-8.44 11.815-12.378l2.813-2.813c5.626 7.877 11.815 15.754 17.442 23.631 9.565 14.066 31.508 1.125 22.505-13.503-9.002-14.629-45.011-65.829-58.514-68.079-11.253-1.688-19.13 5.626-25.319 14.066-9.565 11.253-18.567 22.505-28.132 33.758-1.688-2.251-3.376-3.938-4.501-6.189-4.501-6.752-7.877-15.754-16.879-18.004-19.692-5.064-91.71 92.273-91.71 92.835 0-2.813-4.501-51.763-6.752-73.706-.563-3.376-.563-7.314-1.688-11.815 18.004-6.189 33.758-18.004 23.631-38.259-5.064-10.69-14.629-15.754-25.319-16.879.563-1.688-2.813-34.321-10.69-43.323-1.688-2.251-5.626-1.688-6.752 1.125-5.626 10.127-3.376 41.073-2.813 42.198-15.754-.563-30.382-2.251-42.198-15.191-10.127-10.69-12.941-27.007-21.943-38.822-2.813-3.938-5.626-6.752-9.002-9.565 5.626-1.125 11.815-3.376 16.879-6.189 22.505-14.066 32.633-43.323 23.068-67.516-5.626-15.191-29.82-9.002-24.193 6.752 10.127 29.257-23.631 56.826-47.824 32.633-10.69-10.69-9.565-26.444-.563-38.259 12.941-16.879 28.132-9.002 45.574-12.378 4.501-2.251 6.752-10.127 2.813-13.503-21.943-17.442-53.451-8.44-69.767 11.815-15.191 19.13-15.191 45.011-.563 64.141-7.877 3.376-14.066 9.565-19.692 17.442-9.565-10.69-25.881-12.941-40.51-7.314-24.756 10.127-33.758 38.822-39.385 63.015-3.376 14.629-5.626 29.82-8.44 45.011-2.251 11.815-5.626 24.193-3.376 36.009 4.501 20.255 24.756 30.382 43.886 29.257-8.999 46.698-33.192 177.229-27.003 191.858-8.44 3.376-15.754 7.877-22.505 13.503-5.064 4.501.563 11.253 5.626 10.127 13.503-2.251 222.242-28.694 235.182-34.883.563 0 14.066-3.938 20.255-5.626 5.626 6.752 19.692 5.064 21.38-5.064 15.754-2.813 32.633-5.064 47.824-7.314 21.38-3.376 43.323-.563 65.266-3.938 18.567-2.813 34.883-11.815 52.888-16.316 17.442-4.501 34.321-9.565 51.2-15.754 19.13-6.19 6.189-34.884-11.252-27.57zm-38.26-128.844c-1.688 1.688-11.253 14.066-14.629 14.066-5.626 0-10.127-9.002-14.629-14.066 15.755-30.945 19.693-19.13 29.258 0zm-88.896 8.439c9.565 0 18.567 25.319 23.068 30.945-1.125 2.813-2.251 5.064-3.376 7.877-1.688 3.938-2.813 16.316-5.626 16.316-5.064 0-8.44-14.629-11.253-20.255s-10.127-4.501-13.503 0c-3.938 5.064-7.314 16.879-11.253 15.754-3.938-1.125-5.064-8.44-7.314-12.378 5.063-5.063 21.38-38.259 29.257-38.259zm-308.326-8.439c-7.877-.563-14.629.563-17.442-7.877-1.688-5.626 3.376-19.13 4.501-24.756 2.813-16.316 5.626-32.633 10.127-48.387 3.938-13.503 11.815-39.385 30.945-35.446 1.125.563 2.813 1.125 4.501 2.251-12.378 28.132-18.004 63.578-22.506 81.02-2.813 11.253-5.064 22.505-7.314 33.758-1.124-.563-1.686-.563-2.812-.563zm-11.815 204.237c.563-6.189 1.125-12.378 2.251-18.567 1.688-12.941 3.938-26.444 6.189-39.385 7.877-50.637 16.879-101.275 28.132-151.349 5.626-24.756 12.941-49.512 19.13-74.268 18.004-67.516 48.387-53.451 48.949-53.451 10.69 7.314 18.567 16.316 24.756 27.569 5.064 9.002 7.314 19.692 12.941 28.695 11.815 18.004 30.945 25.881 51.763 29.257 10.127 1.688 27.007-3.938 32.07 5.626 5.064 4.501-10.127 9.002-12.941 9.565-5.626 1.125-11.253 1.125-16.879 1.125-24.756-.563-48.387-12.941-64.141-31.508-9.565-10.69-24.756-1.688-25.881 9.565-6.189 21.38-11.253 45.011-8.44 67.516 3.938 28.694 26.444 36.009 43.886 55.138 18.004 19.692 18.004 50.075 21.38 75.393 2.251 18.004 6.189 34.883 14.629 50.637-10.69 3.938-20.255 3.376-24.756-11.815-2.813-9.565-3.938-19.692-6.752-29.257-3.938-14.066-10.127-27.007-18.567-39.385-12.378-19.13-25.319-41.073-43.323-55.701-4.501-8.44-20.818-6.189-21.943 5.626-2.251 25.881-13.503 48.387-24.756 71.455-7.314 14.629-19.13 33.196-16.879 50.637 1.125 7.877 5.064 15.754 11.815 20.255 1.688 1.125 2.251 1.688 2.251 1.688-.001.566-35.447 4.504-34.884-5.061zm77.081 3.376c-5.064 0-10.69.563-16.316.563-.563-5.064-3.376-10.127-7.314-14.066-6.752-7.314-9.002-10.69-5.626-21.38 2.813-7.877 7.314-15.754 10.69-23.631 10.69-22.505 20.255-44.448 25.319-68.642 15.191 22.505 32.633 46.136 41.073 71.455 5.064 16.316 3.938 39.385 14.066 54.013-20.819 0-41.074 1.125-61.892 1.688zm126.594-11.253c-.563-1.125-1.125-2.251-1.688-3.376-28.132-34.883-12.378-86.646-35.446-124.343-11.815-19.13-41.073-28.695-46.136-50.637-3.376-14.629-1.125-31.508 2.813-46.699 20.818 15.754 46.699 23.631 73.706 22.505 3.376 0 6.752-.563 10.69-1.125 0 2.813 0 6.189.563 8.44.563 21.943 1.688 43.323 3.376 65.266 2.813 41.635 7.877 84.396 6.752 126.031-.563 0-1.688.563-2.251.563-4.502 1.125-8.441 2.25-12.379 3.375z"/></g></g></svg>